<?xml version="1.0" standalone="no"?>
<!DOCTYPE svg PUBLIC "-//W3C//DTD SVG 1.1//EN" "http://www.w3.org/Graphics/SVG/1.1/DTD/svg11.dtd" >
<svg xmlns="http://www.w3.org/2000/svg">
<metadata>Generated by IcoMoon</metadata>
<defs>
<font id="lk-icons" horiz-adv-x="1024">
<font-face units-per-em="1024" ascent="960" descent="-64" />
<missing-glyph horiz-adv-x="1024" />
<glyph unicode="&#x20;" horiz-adv-x="512" d="" />
<glyph unicode="&#xe603;" glyph-name="thumbtack" d="M338.944 837.12c0 0 0 0 0 0 0-5.12-4.096-14.336-6.144-21.504-6.144-15.36-13.312-35.84-13.312-58.368 0-49.152 59.392-117.76 110.592-166.912 119.808-123.904 163.84-123.904 178.176-123.904 1.024 0 2.048 0 2.048 0 45.056 2.048 76.8 14.336 101.376 25.6 20.48 8.192 31.744 13.312 46.080 13.312 2.048 0 3.072 0 5.12 0 1.024 0 3.072 0 5.12-1.024l-319.488-319.488c0 2.048-1.024 3.072-1.024 5.12-1.024 17.408 4.096 29.696 13.312 51.2 10.24 24.576 23.552 56.32 25.6 101.376 1.024 14.336 2.048 58.368-123.904 181.248-49.152 50.176-117.76 110.592-166.912 110.592-22.528 0-41.984-7.168-58.368-13.312-7.168-3.072-16.384-6.144-21.504-7.168 0 0 0 0 0 0v0 0l223.232 223.232zM337.92 889.344c-12.288 0-25.6-5.12-34.816-14.336l-226.304-226.304c-18.432-18.432-19.456-48.128-2.048-68.608 1.024-1.024 0-1.024 1.024-2.048 0 0 1.024 0 1.024-1.024 0 0 0 0 0-1.024 1.024-1.024 2.048-1.024 3.072-2.048 4.096-4.096 8.192-6.144 13.312-8.192 1.024 0 1.024 0 2.048-1.024 6.144-2.048 11.264-3.072 17.408-3.072 0 0 0 0 0 0s0 0 0 0c26.624 0 53.248 20.48 79.872 20.48 38.912 0 131.072-95.232 131.072-95.232s109.568-106.496 108.544-142.336c-3.072-72.704-41.984-99.328-37.888-158.72 3.072-41.984 47.104-78.848 47.104-78.848l186.368 186.368 163.84-163.84 113.664-86.016 3.072 3.072-86.016 113.664-163.84 163.84 185.344 185.344c0 0-36.864 44.032-78.848 47.104-3.072 0-6.144 0-8.192 0-53.248 0-80.896-35.84-149.504-37.888 0 0 0 0-1.024 0-36.864 0-142.336 108.544-142.336 108.544s-95.232 92.16-95.232 131.072c0 26.624 19.456 53.248 20.48 79.872 0 0 0 0 0 1.024 0 6.144-1.024 11.264-3.072 17.408 0 1.024 0 1.024-1.024 2.048-2.048 4.096-5.12 8.192-8.192 13.312-1.024 1.024-1.024 2.048-2.048 3.072 0 0 0 0-1.024 0 0 0 0 1.024-1.024 1.024-1.024 1.024-1.024 0-2.048 1.024-8.192 8.192-20.48 12.288-32.768 12.288v0z" />
<glyph unicode="&#xe604;" glyph-name="vis-table" d="M0 960h1024v-165.161h-1024v165.161zM0 662.71h1024v-33.032h-1024v33.032zM0 486.538h1024v-33.032h-1024v33.032zM0 310.366h1024v-33.032h-1024v33.032zM0 134.194h1024v-33.032h-1024v33.032zM0-30.968h1024v-33.032h-1024v33.032zM0 960h33.032v-1024h-33.032v1024zM330.323 960h33.032v-1024h-33.032v1024zM660.645 960h33.032v-1024h-33.032v1024zM990.968 960h33.032v-1024h-33.032v1024z" />
<glyph unicode="&#xe605;" glyph-name="vis-map" d="M1024 871.914v-297.29c0 0 0 0 0 0-11.011 11.011-11.011 11.011-11.011 22.022 0-11.011-11.011-11.011-11.011 0 0-11.011 11.011-22.022 11.011-22.022 0-11.011 11.011-22.022 11.011-22.022v-297.29c0 0 0 0-11.011-11.011 0 0 11.011-11.011 0-22.022 0-11.011 0-11.011-11.011-11.011 0-11.011 0-22.022 0-22.022 0-11.011-11.011-11.011-11.011-11.011-11.011-11.011-11.011-22.022-22.022-22.022 0-11.011-11.011-11.011-22.022-11.011 0 0-11.011 0-22.022 0-11.011-11.011-22.022 0-22.022 11.011 11.011 0 0 11.011 0 11.011 0 11.011-11.011 22.022-11.011 22.022 0 11.011 0 22.022 0 22.022 0 11.011-11.011 22.022-11.011 22.022 0 11.011-11.011 22.022-11.011 22.022 0 11.011 0 22.022 0 22.022 0 11.011 11.011 22.022 11.011 22.022 0 11.011 0 22.022 0 22.022 0 11.011-11.011 22.022-11.011 33.032s-11.011 11.011-11.011 22.022 0 33.032 0 44.043c0 0-22.022 0-22.022 0s-11.011 11.011-11.011 11.011-11.011 0-22.022 0c-11.011 0-22.022-11.011-22.022-11.011-11.011 11.011-22.022 0-33.032 0s-11.011 11.011-22.022 11.011c0 11.011-11.011 11.011-11.011 22.022 0 0-11.011 11.011-11.011 11.011-11.011 11.011-22.022 11.011-11.011 22.022 0 11.011-11.011 11.011 0 11.011 0 11.011 0 22.022 0 33.032 0 0 0 11.011 0 11.011 0 11.011 11.011 22.022 11.011 33.032 0 0 11.011 11.011 11.011 11.011 0 11.011 11.011 11.011 22.022 11.011 0 11.011 0 22.022 11.011 22.022 0 11.011 11.011 11.011 11.011 22.022 11.011 11.011 11.011 0 22.022 0 0 0 11.011 0 22.022 11.011 0 0 11.011 0 22.022 0 0 11.011 11.011 0 11.011 0 11.011 0 22.022 11.011 22.022 11.011 11.011 0 11.011-11.011 11.011-11.011 0-11.011 0-11.011-11.011-22.022 11.011 0 11.011 0 22.022 0s11.011-11.011 11.011-11.011c11.011 0 22.022-11.011 22.022-11.011 0 11.011 0 22.022 11.011 22.022s11.011 0 22.022-11.011c0 0 11.011 0 22.022 0 11.011-11.011 11.011 0 22.022 0 11.011-11.011 22.022 0 22.022 11.011 0 0 0 11.011 0 22.022 0 0 0 0-11.011 0 0-11.011-11.011 0-22.022 0 0 0-11.011 0-11.011 0-11.011 0-11.011 11.011-11.011 11.011s-11.011 11.011 0 22.022c0 0-11.011 0-11.011 0-11.011 0-11.011-11.011-11.011-11.011 11.011-11.011 0-11.011 0-11.011s11.011-11.011 0-11.011c-11.011 0-11.011 11.011-11.011 11.011-11.011 11.011-11.011 22.022-11.011 22.022 0 11.011-11.011 11.011-22.022 22.022 0 0-11.011 11.011-11.011 11.011-11.011-11.011 0-11.011 0-22.022 11.011 0 11.011-11.011 22.022-11.011s11.011-11.011 0-11.011c0 11.011 0 0 0 0 0-11.011-11.011-11.011-11.011-11.011 0-11.011-11.011 0-11.011 0-11.011 0 0 0 0 0 11.011 0 22.022 11.011 11.011 11.011-11.011 11.011-11.011 11.011-22.022 22.022-11.011 0-11.011 11.011-11.011 11.011-11.011 0-22.022-11.011-33.032-11.011-11.011 11.011 0-11.011-11.011-11.011s-11.011-11.011-11.011-11.011-11.011-22.022-11.011-22.022c-11.011 0-22.022 0-33.032 0 0 11.011-11.011 0-11.011 11.011 0 0 0 11.011 0 11.011 0 11.011 0 22.022 0 22.022 11.011 11.011 22.022 11.011 22.022 11.011 11.011 0 22.022-11.011 22.022 0 11.011 11.011 0 22.022-11.011 22.022-11.011 11.011 0 11.011 11.011 11.011 0 0 0 0 0 11.011 11.011-11.011 11.011 0 22.022 0 0 11.011 11.011 11.011 11.011 11.011 0 11.011 11.011 11.011 22.022 11.011 0 0 11.011 11.011 0 11.011 0 11.011 11.011 22.022 11.011 11.011 0 0 0-11.011 11.011-22.022 0 0-11.011 11.011 0 11.011-11.011 11.011 11.011 0 0 11.011 0 0 0 11.011-11.011 11.011 0 0-11.011 0-11.011 0-11.011 0-11.011 11.011-11.011 11.011-11.011 11.011 0 11.011 11.011 22.022 11.011 0 11.011 0 22.022 11.011 0 11.011 11.011 11.011 22.022 22.022 0 0 11.011 11.011 11.011 11.011 11.011 0 22.022 0 22.022 0 11.011 0 22.022 0 33.032 0 0 0 0 0 11.011 0 11.011-11.011 22.022-11.011 33.032-11.011 0 0 11.011-11.011 0-22.022-11.011 0-22.022 0-22.022 11.011 0-11.011 0-22.022 11.011-22.022 0 0-11.011 11.011 0 11.011 0 0 11.011-11.011 11.011 0 0 0 11.011 11.011 11.011 11.011s0 11.011 0 11.011c0 0 11.011 0 11.011 0zM0 827.871v-22.022c0 0 0 0 0 0v-11.011c0 0 11.011 11.011 11.011 11.011 11.011 0 22.022 11.011 33.032 11.011 0 0 11.011 0 0 0-11.011-11.011 0-11.011 0-11.011 11.011 11.011 22.022 11.011 22.022 11.011 11.011 11.011 11.011 0 22.022 0s11.011 0 22.022-11.011c0 0 11.011 0 0-11.011 11.011 0 11.011-11.011 11.011-11.011-11.011-11.011 0-11.011-11.011-22.022 0-11.011 11.011-11.011 11.011-22.022 11.011-11.011 0 11.011 0 11.011-11.011 0-22.022 0-11.011-11.011 11.011 0 0-11.011 0-22.022-11.011-11.011-11.011-11.011-22.022-22.022 0-11.011 0-11.011-11.011-11.011 0-11.011 11.011-22.022 0-33.032 0-11.011 0-22.022 11.011-22.022s11.011-11.011 11.011-11.011 0-22.022 0-22.022c-11.011-11.011 0-22.022 11.011-22.022 0 0 0-11.011 11.011-11.011 0 0 0-11.011 0 0 0 0 0 11.011-11.011 22.022 0 11.011-11.011 22.022 0 33.032 0 0 11.011-11.011 11.011-11.011-11.011-11.011 0-22.022 11.011-22.022 0-11.011 0-11.011 0-22.022 11.011 0 11.011-11.011 11.011-11.011 0-11.011 0-22.022 11.011-22.022 0-11.011 11.011-11.011 22.022-22.022 11.011 0 11.011-11.011 22.022-11.011 11.011 11.011 11.011 11.011 22.022 0 0 0 11.011-11.011 11.011-11.011 11.011 0 22.022 0 22.022-11.011s11.011 0 11.011 0c-11.011 0-11.011-22.022 0-22.022s11.011-11.011 22.022-11.011c0 0 11.011 0 11.011 11.011 0 0 11.011 0 11.011-11.011s0-22.022 0-22.022-11.011-11.011-11.011-22.022c-11.011 0-11.011-11.011-11.011-22.022 0 0 0-11.011 0-11.011s0-11.011 0-22.022c0 0 11.011 0 11.011-11.011s11.011-11.011 11.011-22.022 11.011-22.022 22.022-33.032c0 0 11.011 0 11.011-11.011 11.011 0 22.022-11.011 22.022-11.011 0-22.022 0-33.032 0-44.043s0-22.022 0-22.022 0-22.022 0-22.022c11.011-11.011 11.011-22.022 11.011-33.032 0 0-11.011-11.011 0-22.022 0 0 0-11.011 0-22.022 11.011 0 11.011-11.011 11.011-22.022s11.011-22.022 11.011-33.032c0 0 11.011-11.011 11.011-22.022 0 0 11.011-11.011 22.022 0 0 0 0-11.011 0-11.011 11.011-11.011 11.011 0 22.022-11.011 0 0 22.022 11.011 11.011 11.011s-22.022 0-22.022 11.011-11.011 11.011-11.011 22.022 11.011 11.011 11.011 22.022c-11.011 0-22.022 0-11.011 11.011 11.011 0 0 11.011 11.011 11.011 0 11.011-11.011 0-11.011 11.011s11.011 0 11.011 0c11.011 11.011-11.011 22.022 0 22.022s22.022 0 22.022 11.011c11.011 0 0 11.011 0 11.011-11.011 0-11.011 11.011 0 11.011 0-11.011 11.011-11.011 22.022 0 0 11.011 0 22.022 11.011 22.022 0 0 0 11.011 11.011 11.011 0 11.011-11.011 22.022 0 33.032 0 0 11.011 0 22.022 11.011 0 0 11.011 0 22.022 11.011 0 11.011 0 11.011 0 22.022 11.011 11.011 0 22.022 0 33.032s11.011 11.011 11.011 22.022 22.022 22.022 11.011 44.043c0 0-11.011 0-22.022 11.011 0 0-11.011 0-22.022 0 0 11.011-11.011 11.011-11.011 11.011s-11.011 11.011-22.022 11.011c0 0-11.011 0-11.011 11.011s-11.011 11.011-11.011 22.022c0 0-11.011 11.011-22.022 11.011 0 0-11.011 0-22.022 11.011 0 0 0 11.011-11.011 11.011 0 0 0 11.011-11.011 11.011 11.011 0 11.011 11.011 0 0 0 0 0 0 0 0-11.011 11.011-22.022 0-22.022 0-11.011 0-11.011 0-22.022 11.011 0 0 0 0-11.011 0 0 0-11.011-11.011 0 0 0 0 0 11.011-11.011 0 0 0-11.011 0-22.022-11.011 0-11.011-11.011-22.022-11.011-11.011-11.011 11.011-11.011 0-22.022 0-11.011 11.011-11.011 11.011-11.011 22.022s0 11.011 0 22.022-11.011 11.011-22.022 11.011c0-11.011-11.011 0 0 0 0 11.011 0 11.011 0 22.022 0 0 11.011 11.011 11.011 11.011-11.011 11.011-22.022 0-22.022 0 0-11.011-11.011-22.022-22.022-22.022 0 0-11.011 0-11.011 11.011-11.011 0-11.011 11.011-11.011 22.022s11.011 22.022 11.011 33.032c0 11.011 11.011 11.011 22.022 11.011 0 11.011 11.011 0 22.022 0s0 11.011 11.011 11.011c11.011 0 11.011 0 22.022-11.011 11.011 11.011 11.011 0 11.011-11.011 0 0 0-11.011 11.011-11.011 0 0 0 11.011 0 22.022 0 0 0 11.011 0 22.022 11.011 0 11.011 11.011 22.022 11.011 0 0 11.011 11.011 11.011 11.011 11.011 11.011 11.011 11.011 11.011 22.022 11.011 0 11.011 11.011 11.011 11.011 11.011 11.011 11.011 11.011 22.022 11.011s11.011 22.022 22.022 22.022c11.011 0 11.011 0 22.022 11.011 11.011 0 11.011 0 11.011 0-11.011-11.011-22.022-11.011-11.011-11.011s11.011 0 22.022 0c0 11.011 11.011 11.011 0 11.011s-11.011 11.011 0 22.022c0 0-11.011 11.011-11.011 0-11.011 0-22.022 0-22.022 0 11.011 0 22.022 11.011 22.022 11.011 11.011 0 22.022 0 33.032 0s11.011 11.011 22.022 11.011c0-11.011-11.011-22.022-22.022-22.022 0 0 0-11.011 11.011-11.011 0 0 11.011 0 11.011 0 11.011-11.011 22.022 0 11.011 0 0 11.011 11.011 22.022 0 22.022-11.011-11.011-11.011 0 0 0 0 11.011 0 22.022 0 22.022 0 11.011-22.022 11.011-22.022 22.022 11.011 0 0 11.011 0 22.022 0 0-11.011-11.011-11.011-11.011-11.011 0-22.022 11.011-11.011 11.011 0 11.011-11.011 11.011-11.011 11.011-11.011 0-11.011 0-22.022 11.011-11.011-11.011-11.011-22.022-11.011-22.022 0-11.011-11.011-11.011-11.011-11.011 0-11.011 0-22.022-11.011-22.022s-11.011 0-11.011-11.011-11.011-11.011-11.011-11.011 0 11.011 0 22.022c-11.011 0-22.022 0-22.022 11.011-11.011 0-11.011 0-22.022 0 0 11.011 11.011 11.011 0 11.011 0 11.011 11.011 22.022 22.022 22.022s22.022 11.011 22.022 11.011c11.011 0 22.022 11.011 22.022 11.011s-11.011-11.011 0-11.011c11.011 0 11.011 0 22.022 0 0 0 0 11.011-11.011 11.011 0 11.011 11.011 0 11.011 0 11.011 11.011 11.011 11.011 22.022 22.022 0 11.011-22.022 11.011 0 11.011 0-11.011 11.011 0 22.022-11.011 0 0 11.011-11.011 0-11.011 0 0 0-11.011-11.011-11.011s-22.022 0-11.011-11.011c0 0 11.011 0 11.011 0 11.011 0 11.011-11.011 22.022-11.011 0 0 11.011 0 11.011 0 0 11.011-11.011 11.011 0 11.011 0-11.011 11.011 0 11.011 11.011 0 0-11.011 11.011 0 0 11.011 11.011 11.011-11.011 11.011 0 11.011 0 11.011 11.011 11.011 11.011-11.011 11.011-22.022 11.011-11.011 11.011 0 11.011 0 11.011-11.011 11.011 0 11.011-11.011 11.011-11.011 11.011s-11.011 11.011-11.011 11.011c0 0 0 0 0 0-11.011 0 0-11.011-11.011-11.011 0 0 11.011 11.011 0 11.011s-22.022-11.011-22.022-11.011c11.011 0 0 11.011 0 11.011-11.011 0-11.011-11.011-22.022-11.011-11.011-11.011 0-11.011 11.011-11.011-11.011-11.011-22.022-22.022-22.022-22.022 0 11.011 0 11.011 0 11.011-11.011 0 0 11.011-11.011 11.011 11.011 0 0 11.011 0 11.011-11.011-11.011-11.011-11.011-22.022-11.011 11.011-11.011 11.011-11.011 0-11.011 0-11.011-11.011 0-22.022 0 0 0-11.011-11.011-22.022 0-11.011 0-11.011 0-22.022 0 0 0-11.011-11.011-22.022-11.011 0 0 0 11.011 0 11.011-11.011 0-11.011 0-22.022 11.011-11.011 0-11.011-11.011-22.022 0 0 0-11.011 0-22.022 0 0 0-11.011-11.011-22.022-11.011 0 0-11.011 0-22.022 0 0 11.011-11.011 11.011-22.022 11.011 0 0-11.011 0-22.022 0s-11.011 0-22.022 0-22.022 0-33.032 0c-11.011 0-11.011-11.011-22.022-11.011s-11.011 0-11.011-11.011c0 0 11.011 0 0 0 0-11.011-11.011 0-22.022 0 0 0-11.011-11.011-11.011-22.022 11.011 11.011 22.022 0 22.022 0s-11.011 0-22.022 0c0 0-11.011 0-11.011-11.011zM770.753 783.828v0c0 0 0 0 0 0v0c-11.011 0-11.011-11.011-11.011-11.011-11.011 0 0-11.011-11.011-11.011 0 0 11.011-11.011 11.011 0 11.011 0 11.011 0 11.011 11.011 11.011 0 11.011 0 11.011 0s0 0 0 0c11.011-11.011-11.011 0 0-11.011-11.011 0-11.011-11.011 0-11.011 0 0 0 0 0 0-11.011 0-11.011-11.011 0-11.011 0 11.011 11.011 11.011 22.022 11.011 0 0 11.011 0 0 0 11.011 11.011 11.011 11.011 0 11.011 0 11.011-11.011 22.022-11.011 22.022 0 11.011 0 11.011 0 11.011s-11.011 0 0 11.011c0 0-11.011 0-11.011 0s-11.011-11.011-11.011-11.011c0-11.011 0-11.011 0-11.011zM583.57 937.978v0c0 0 0 0 0 0-22.022 11.011-33.032 0-44.043 0s-11.011 11.011-11.011 11.011c-22.022 0-33.032-11.011-44.043-11.011s-11.011 0 0 0c0-11.011 11.011-11.011 0-11.011 0 0-11.011-11.011-11.011-11.011-11.011 0-22.022 0-22.022 0 0-11.011 11.011 0 11.011-11.011 11.011 11.011 11.011 0 22.022 0s11.011 11.011 22.022 11.011 22.022 11.011 22.022 11.011 22.022 0 33.032 11.011c0 0 0-11.011 0-11.011s-11.011 0-22.022 0c0 0-22.022 0-11.011-11.011 0 0 0-11.011 11.011 0 11.011 0 22.022 0 22.022-11.011 11.011 0 11.011-11.011 11.011-11.011-11.011-11.011 11.011-11.011 11.011-11.011-11.011 0-11.011 0-11.011-11.011 11.011 0-11.011 0-11.011-11.011 0 0 0-11.011 0-11.011 0-11.011 0-22.022 11.011-33.032 0 0 11.011 0 11.011 0 11.011-11.011 11.011 0 11.011 11.011 11.011 0 11.011 0 22.022 11.011 0 11.011 11.011 11.011 11.011 11.011 11.011 0 22.022 0 22.022 11.011 11.011 0 22.022 0 22.022 0 11.011 0 22.022 11.011 33.032 11.011 11.011 11.011-11.011 11.011 0 11.011 0-11.011 11.011-11.011 11.011 0s-11.011 11.011-11.011 11.011c11.011 0 22.022 0 22.022 11.011 11.011 0 0 11.011 11.011 11.011 0 0 0 11.011 0 11.011s11.011 0 11.011 0c11.011 11.011 22.022 11.011 22.022 11.011-11.011 0-22.022 0-33.032 0 0 0 0 11.011 0 11.011-11.011 0-22.022 0-33.032 0s-22.022 0-33.032 0c-11.011 0-22.022-11.011-33.032 0-11.011-11.011-22.022 0-33.032-11.011-11.011 0-22.022 0-22.022 0zM572.559 937.978v0c0 0 0 0 0 0s0 0 0 0 0 0 0 0zM704.688 860.903c0 0 0-11.011 11.011-11.011 0 11.011 11.011 0 22.022 0 0 11.011 11.011 0 0-11.011 0 0-11.011 0-22.022 0 0 0-22.022 0-11.011 0-11.011 0 0 11.011 0 11.011-11.011 0-11.011 11.011 0 11.011zM0 960h1024v-33.032h-1024v33.032zM0-30.968h1024v-33.032h-1024v33.032zM0 960h33.032v-1024h-33.032v1024zM990.968 960h33.032v-1024h-33.032v1024z" />
<glyph unicode="&#xe606;" glyph-name="notes" d="M291.081 594.015c-31.289 0-55.941-25.6-55.941-55.941 0-31.289 25.6-55.941 55.941-55.941 31.289 0 55.941 25.6 55.941 55.941s-24.652 55.941-55.941 55.941zM515.793 594.015c-31.289 0-55.941-25.6-55.941-55.941 0-31.289 25.6-55.941 55.941-55.941 31.289 0 55.941 25.6 55.941 55.941 0.948 30.341-24.652 55.941-55.941 55.941zM881.778 875.615h-731.022c-46.459 0-84.385-37.926-84.385-84.385v-563.2c0-46.459 37.926-84.385 84.385-84.385h253.156l111.881-112.83 112.83 112.83h253.156c46.459 0 84.385 37.926 84.385 84.385v562.252c0 47.407-36.978 85.333-84.385 85.333zM910.222 228.030c0-15.17-12.326-28.444-28.444-28.444h-280.652l-84.385-84.385-84.385 84.385h-281.6c-15.17 0-28.444 12.326-28.444 28.444v562.252c0 15.17 12.326 28.444 28.444 28.444h731.022c15.17 0 28.444-12.326 28.444-28.444v-562.252zM741.452 594.015c-31.289 0-55.941-25.6-55.941-55.941 0-31.289 25.6-55.941 55.941-55.941 31.289 0 55.941 25.6 55.941 55.941s-24.652 55.941-55.941 55.941z" />
<glyph unicode="&#xe607;" glyph-name="search" d="M1014.832-11.712l-284.032 284.032c62.976 72.912 101.168 167.84 101.168 271.744 0 229.744-186.256 416-416 416s-416-186.256-416-416c0-229.744 186.256-416 416-416 103.904 0 198.848 38.192 271.744 101.168l284.032-284.016c11.888-11.904 31.184-11.904 43.072 0 11.904 11.904 11.904 31.184 0.016 43.072v0zM415.984 192.064c-194.4 0-352 157.568-352 352 0 194.4 157.6 352 352 352s352-157.6 352-352c0-194.432-157.6-352-352-352v0z" />
<glyph unicode="&#xe608;" glyph-name="vis-area" d="M1018.553-58.553h-1013.106v1013.106h1013.106v-1013.106zM38.128-25.872h947.745v947.745h-947.745v-947.745zM904.17 742.128l-196.085-98.043-196.085-294.128-196.085 98.043-196.085-98.043v-294.128h784.34v686.298z" />
<glyph unicode="&#xe609;" glyph-name="vis-bar" d="M119.83 840.17h784.34v-130.723h-784.34v130.723zM119.83 186.553h196.085v-130.723h-196.085v130.723zM119.83 622.298h588.255v-130.723h-588.255v130.723zM119.83 404.426h392.17v-130.723h-392.17v130.723zM1018.553-58.553h-1013.106v1013.106h1013.106v-1013.106zM38.128-25.872h947.745v947.745h-947.745v-947.745z" />
<glyph unicode="&#xe60a;" glyph-name="vis-column" d="M119.83 546.043h196.085v-490.213h-196.085v490.213zM413.957 448h196.085v-392.17h-196.085v392.17zM708.085 840.17h196.085v-784.34h-196.085v784.34zM1018.553-58.553h-1013.106v1013.106h1013.106v-1013.106zM38.128-25.872h947.745v947.745h-947.745v-947.745z" />
<glyph unicode="&#xe60b;" glyph-name="vis-line" d="M1018.553-58.553h-1013.106v1013.106h1013.106v-1013.106zM38.128-25.872h947.745v947.745h-947.745v-947.745zM521.314 314.847l-205.399 102.705-183.906-91.953-24.358 48.716 208.264 104.132 186.771-93.38 186.749 280.14 202.556 101.278 24.358-48.716-189.614-94.807-205.421-308.115z" />
<glyph unicode="&#xe60c;" glyph-name="vis-pie" d="M904.17 423.489c0 230.16-186.521 416.681-416.681 416.681-8.388 0-16.275-1.721-24.511-2.299v2.299h-49.021v-102.945c-166.084-24.020-294.128-165.55-294.128-338.247 0-189.516 153.633-343.149 343.149-343.149 93.968 0 178.1 38.977 240.008 100.254l73.477-51.233 30.154 41.178-5.741 3.976c64.033 73.183 103.293 168.579 103.293 273.484v0zM462.979 104.851c-162.457 0-294.128 131.715-294.128 294.128 0 145.691 106.126 265.75 245.106 289.182v-329.674l-0.49-0.632 0.49-0.349 248.396-173.143c-52.507-48.771-122.019-79.513-199.375-79.513v0zM760.538 178.143l-297.559 207.404v403.151c8.236 0.588 16.123 2.451 24.511 2.451 203.090 0 367.66-164.57 367.66-367.66 0-94.469-35.982-180.257-94.611-245.346v0zM1018.553-58.553h-1013.106v1013.106h1013.106v-1013.106zM38.128-25.872h947.745v947.745h-947.745v-947.745z" />
<glyph unicode="&#xe60d;" glyph-name="vis-scatter" d="M610.043 644.085c0-54.152-43.89-98.043-98.043-98.043v0c-54.152 0-98.043 43.89-98.043 98.043v0c0 54.152 43.89 98.043 98.043 98.043v0c54.152 0 98.043-43.89 98.043-98.043v0 0zM904.17 268.255c0-99.274-80.471-179.745-179.745-179.745v0c-99.274 0-179.745 80.471-179.745 179.745v0c0 99.274 80.471 179.745 179.745 179.745v0c99.274 0 179.745-80.471 179.745-179.745v0 0zM315.915 202.894c0-27.071-21.951-49.021-49.021-49.021v0c-27.071 0-49.021 21.951-49.021 49.021v0c0 27.071 21.951 49.021 49.021 49.021v0c27.071 0 49.021-21.951 49.021-49.021v0 0zM272.34 524.255c0-42.115-34.141-76.255-76.255-76.255v0c-42.115 0-76.255 34.141-76.255 76.255v0c0 42.115 34.141 76.255 76.255 76.255v0c42.115 0 76.255-34.141 76.255-76.255v0 0zM1018.553-58.553h-1013.106v1013.106h1013.106v-1013.106zM38.128-25.872h947.745v947.745h-947.745v-947.745z" />
<glyph unicode="&#xe60e;" glyph-name="vis-single-value" d="M290.478 397.726c0 135.636 26.352 237.045 79.066 304.248 52.714 67.192 130.691 100.788 233.919 100.788 35.557 0 63.564-2.985 84.022-8.965v-67.508c-24.238 7.865-51.919 11.798-83.075 11.798-73.968 0-130.462-23.062-169.483-69.164-39.021-46.113-60.416-118.566-64.196-217.393h5.665c34.62 54.13 89.371 81.201 164.276 81.201 61.996 0 110.853-18.726 146.574-56.178s53.575-88.271 53.575-152.478c0-71.756-19.587-128.174-58.76-169.243-39.184-41.069-92.138-61.603-158.851-61.603-71.451 0-128.098 26.831-169.94 80.493-41.864 53.662-62.791 128.338-62.791 224.005v0zM522.262 159.798c44.686 0 79.382 14.085 104.089 42.245 24.696 28.16 37.049 68.837 37.049 122.041 0 45.622-11.493 81.495-34.457 107.629-22.975 26.123-57.279 39.184-102.912 39.184-28.323 0-54.283-5.828-77.889-17.473s-42.409-27.692-56.407-48.15c-13.998-20.458-21.003-41.701-21.003-63.728 0-32.419 6.297-62.627 18.879-90.635s30.459-50.209 53.586-66.56c23.127-16.373 49.479-24.554 79.066-24.554v0zM1022.203-58.553h-1013.106v1013.106h1013.106v-1013.106zM41.777-25.872h947.745v947.745h-947.745v-947.745z" />
<glyph unicode="&#xe611;" glyph-name="view-grid" d="M384 383.936h-256c-35.328 0-64-28.608-64-64v-256c0-35.328 28.672-64 64-64h256c35.328 0 64 28.672 64 64v256c0 35.392-28.672 64-64 64zM384 95.936c0-17.664-14.336-32-32-32h-192c-17.664 0-32 14.336-32 32v192c0 17.664 14.336 32 32 32h192c17.664 0 32-14.336 32-32v-192zM384 896h-256c-35.328 0-64-28.672-64-64.064v-256c0-35.328 28.672-64 64-64h256c35.328 0 64 28.672 64 64v256c0 35.392-28.672 64.064-64 64.064zM384 607.936c0-17.6-14.336-32-32-32h-192c-17.664 0-32 14.4-32 32v192.064c0 17.6 14.336 31.936 32 31.936h192c17.664 0 32-14.336 32-31.936v-192.064zM896 896h-256c-35.392 0-64-28.672-64-64.064v-256c0-35.328 28.672-64 64-64h256c35.392 0 64 28.672 64 64v256c0 35.392-28.608 64.064-64 64.064zM896 607.936c0-17.6-14.4-32-32-32h-192c-17.6 0-32 14.4-32 32v192.064c0 17.6 14.4 31.936 32 31.936h192c17.6 0 32-14.336 32-31.936v-192.064zM896 383.936h-256c-35.392 0-64-28.608-64-64v-256c0-35.328 28.672-64 64-64h256c35.392 0 64 28.672 64 64v256c0 35.392-28.608 64-64 64zM896 95.936c0-17.664-14.4-32-32-32h-192c-17.6 0-32 14.336-32 32v192c0 17.664 14.4 32 32 32h192c17.6 0 32-14.336 32-32v-192z" />
<glyph unicode="&#xe614;" glyph-name="user" d="M972.352 193.856c-27.008 25.728-272.256 81.344-319.36 91.968 110.656 60.864 179.136 208.448 179.136 347.456 0 180.416-52.352 326.656-288.192 326.656-235.776 0-288.192-146.24-288.192-326.656 0-139.52 68.992-287.552 180.352-348.032-54.016-11.904-292.224-65.216-319.936-91.392-49.664-46.848-74.688-164.096-25.024-234.432 0 0 60.352-23.488 454.784-23.488 394.496 0 451.072 23.488 451.072 23.488 49.408 70.336 24.64 187.584-24.64 234.432zM928 0l-388.352 0.96c0 0-379.52-0.96-379.648-0.96-70.144 27.072-34.56 137.28 12.224 159.936 38.528 18.688 217.472 68.992 287.168 88.32l12.8 63.104v26.88c-94.656 45.632-152.192 175.68-152.192 293.888 0 145.792 37.312 264.064 223.872 264.064 186.624 0 223.872-118.272 223.872-264.064 0-118.208-57.344-248.256-152.128-293.888v-26.88l13.76-67.2c86.144-21.568 262.656-66.752 298.624-84.224 46.656-22.592 61.504-136.576 0-159.936z" />
<glyph unicode="&#xe617;" glyph-name="plus" d="M960 447.936h-384v384c0 17.664-14.336 32-32 32-17.6 0-32-14.336-32-32v-384h-384c-17.664 0-32-14.336-32-32s14.336-32 32-32h384v-384c0-17.664 14.336-32 32-32s32 14.336 32 32v384h384c17.6 0 32 14.336 32 32s-14.4 32-32 32z" />
<glyph unicode="&#xe618;" glyph-name="minus" d="M928 447.936h-832c-17.664 0-32-14.336-32-32s14.336-32 32-32h832c17.6 0 32 14.336 32 32s-14.4 32-32 32z" />
<glyph unicode="&#xe61d;" glyph-name="gear" d="M1024 448c0 67.2-52.032 121.664-117.888 126.912-6.976 21.952-15.616 42.88-26.112 63.040 42.24 50.304 41.344 124.672-6.016 172.032-47.232 47.296-121.6 48.256-171.904 6.016-20.224 10.432-41.216 19.072-63.104 26.112-5.376 65.856-59.712 117.824-126.976 117.824-67.2 0-121.664-51.968-126.976-117.824-21.952-7.040-42.944-15.68-63.104-26.112-50.304 42.24-124.672 41.344-171.968-6.016s-48.256-121.664-6.016-171.968c-10.432-20.224-19.008-41.152-26.112-63.104-65.856-5.248-117.824-59.712-117.824-126.912 0-67.264 51.968-121.664 117.824-126.976 7.104-21.952 15.68-42.944 26.176-63.104-42.304-50.24-41.344-124.608 5.952-171.968 47.36-47.296 121.664-48.256 171.968-6.016 20.16-10.432 41.152-19.072 63.104-26.112 5.248-65.92 59.776-117.888 126.976-117.888 67.264 0 121.728 52.032 126.976 117.888 21.888 7.040 42.88 15.68 63.104 26.112 50.24-42.24 124.608-41.344 171.904 6.016 47.36 47.296 48.256 121.664 6.016 171.968 10.496 20.16 19.136 41.216 26.112 63.104 65.92 5.312 117.888 59.712 117.888 126.976zM858.112 383.936c-9.152-49.472-29.248-94.912-56.768-134.784l27.392-27.456c25.024-25.024 25.024-65.472 0-90.496s-65.472-25.024-90.496 0l-27.648 27.648c-39.872-27.392-85.248-47.36-134.592-56.384v-38.464c0-35.392-28.608-64.064-64-64.064s-64 28.672-64 64.064v38.464c-49.408 9.088-94.784 28.992-134.656 56.384l-27.584-27.648c-25.024-25.024-65.536-25.024-90.496 0-25.024 25.024-25.024 65.472 0 90.496l27.456 27.456c-27.584 39.872-47.616 85.312-56.768 134.784h-37.952c-35.328 0-64 28.672-64 64.064 0 35.328 28.672 63.936 64 63.936h37.888c9.152 49.536 29.248 94.976 56.768 134.848l-27.456 27.456c-25.024 25.024-25.024 65.472 0 90.496 24.96 25.024 65.472 25.024 90.496 0l27.648-27.584c39.872 27.328 85.248 47.296 134.656 56.32v38.464c0 35.392 28.672 64 64 64s64-28.608 64-64v-38.464c49.408-9.088 94.784-29.056 134.656-56.384l27.648 27.648c25.024 25.024 65.472 25.024 90.496 0s25.024-65.472 0-90.496l-27.392-27.456c27.52-39.872 47.616-85.312 56.768-134.848h37.824c35.392 0 64-28.608 64-63.936 0-35.392-28.608-64.064-64-64.064h-37.888zM512 639.936c-106.048 0-192-85.952-192-191.936 0-106.048 85.952-192.064 192-192.064 105.984 0 192 86.016 192 192.064 0 105.984-86.016 191.936-192 191.936zM512 320c-70.656 0-128 57.28-128 128 0 70.656 57.344 127.936 128 127.936s128-57.344 128-127.936c0-70.784-57.344-128-128-128z" />
<glyph unicode="&#xe620;" glyph-name="explore" d="M896 639.936h-128c-47.232 0-88.128-25.92-110.272-64h-145.728v64h-256v-64h-192c-35.328 0-64-28.672-64-64v-192c0-35.392 28.672-64 64-64h593.728c22.144-38.144 62.976-64 110.272-64h256v448h-128zM320 575.936h128v-64h-128v64zM640 319.936h-544c-17.664 0-32 14.336-32 32v128c0 17.664 14.336 32 32 32h160v-64h256v64h128v-192zM832 255.936h-64c-35.392 0-64 28.608-64 64v192c0 35.328 28.608 64 64 64h64v-320zM960 255.936h-64v320h64v-320z" />
<glyph unicode="&#xe621;" glyph-name="dashboard" d="M615.36 549.376c-18.496 4.672-39.104-4.544-45.952-20.672l-88.64-208.896c-0.256 0-0.512 0.064-0.768 0.064-52.992 0-96-42.944-96-96 0-52.992 43.008-95.936 96-95.936s96 42.944 96 95.936c0 28.096-12.288 53.184-31.552 70.72l92.16 217.152c6.784 16.128-2.752 32.96-21.248 37.632zM480 191.808c-17.728 0-32 14.336-32 32s14.272 32 32 32c17.6 0 32-14.336 32-32s-14.336-32-32-32zM512 959.872c-282.752 0-512-229.184-512-512s229.248-511.936 512-511.936c282.688 0 512 229.12 512 511.936s-229.248 512-512 512zM512-0.128c-247.488 0-448 200.576-448 448s200.576 448 448 448c247.36 0 448-200.576 448-448s-200.64-448-448-448zM512 767.872c-176.768 0-320-143.232-320-320h64c0 141.376 114.624 256 256 256 141.312 0 256-114.624 256-256h64c0 176.768-143.232 320-320 320z" />
<glyph unicode="&#xe622;" glyph-name="close" d="M556.544 479.936l394.496 394.56c12.352 12.224 12.352 32.256 0 44.48-12.224 12.288-32.128 12.288-44.48 0l-394.56-394.496-394.56 394.496c-12.288 12.288-32.256 12.288-44.544 0-12.288-12.224-12.288-32.256 0-44.48l394.56-394.56-394.496-394.496c-12.288-12.288-12.288-32.256 0-44.544s32.192-12.288 44.544 0l394.496 394.56 394.496-394.56c12.352-12.288 32.256-12.288 44.48 0 12.352 12.288 12.352 32.256 0 44.544l-394.432 394.496z" />
<glyph unicode="&#xe628;" glyph-name="info-filled" d="M505.696 918.976c-260.096-3.488-468.16-217.184-464.704-477.344 3.488-260 217.184-468.128 477.28-464.64s468.16 217.184 464.704 477.344c-3.424 260.032-217.184 468.128-477.28 464.64zM557.92 762.016c47.872 0 62.016-27.744 62.016-59.552 0-39.68-31.808-76.384-86.016-76.384-45.376 0-66.912 22.848-65.632 60.512 0 31.808 26.624 75.424 89.664 75.424zM435.136 153.6c-32.704 0-56.672 19.872-33.792 107.2l37.536 154.816c6.496 24.832 7.584 34.752 0 34.752-9.792 0-52.288-17.152-77.408-34.048l-16.32 26.784c79.616 66.464 171.168 105.472 210.368 105.472 32.704 0 38.144-38.72 21.824-98.24l-43.008-162.816c-7.584-28.768-4.288-38.72 3.264-38.72 9.792 0 41.984 11.872 73.632 36.768l18.496-24.832c-77.376-77.376-161.792-107.168-194.56-107.168z" />
<glyph unicode="&#xe629;" glyph-name="ellipsis" d="M153.6 560.64c-62.208 0-112.64-50.432-112.64-112.64s50.432-112.64 112.64-112.64 112.64 50.432 112.64 112.64c0 62.208-50.432 112.64-112.64 112.64zM512 560.64c-62.208 0-112.64-50.432-112.64-112.64s50.432-112.64 112.64-112.64 112.576 50.432 112.576 112.64c0 62.208-50.368 112.64-112.576 112.64zM870.4 560.64c-62.208 0-112.64-50.432-112.64-112.64s50.432-112.64 112.64-112.64 112.64 50.432 112.64 112.64c0 62.208-50.432 112.64-112.64 112.64z" />
<glyph unicode="&#xe62b;" glyph-name="circle-x-filled" d="M512 878.080c-237.568 0-430.080-192.608-430.080-430.080 0-237.568 192.576-430.080 430.080-430.080s430.080 192.576 430.080 430.080c0 237.504-192.576 430.080-430.080 430.080zM600.512 448l156.736-156.736-88.512-88.512-156.736 156.736-156.736-156.736-88.48 88.512 156.672 156.736-156.672 156.672 88.48 88.512 156.736-156.672 156.736 156.672 88.512-88.48-156.736-156.736z" />
<glyph unicode="&#xe62d;" glyph-name="circle-plus-filled" d="M512 878.080c-237.568 0-430.080-192.608-430.080-430.080 0-237.568 192.576-430.080 430.080-430.080s430.080 192.576 430.080 430.080c0 237.504-192.576 430.080-430.080 430.080zM564.32 395.68v-206.176h-104.64v206.176h-206.24v104.64h206.176v206.24h104.704v-206.176h206.176v-104.704h-206.176z" />
<glyph unicode="&#xe62f;" glyph-name="circle-minus-filled" d="M512 878.080c-237.568 0-430.080-192.608-430.080-430.080 0-237.568 192.576-430.080 430.080-430.080s430.080 192.576 430.080 430.080c0 237.504-192.576 430.080-430.080 430.080zM770.56 500.32v-104.704h-517.12v104.704h517.12z" />
<glyph unicode="&#xe631;" glyph-name="checkmark" d="M1014.144 759.040c-12.352 12.352-32.512 12.352-44.864 0l-617.536-617.536-295.552 295.424c-12.48 12.48-32.768 12.48-45.248 0s-12.48-32.768 0-45.184l316.8-316.8c0.256-0.32 0.64-0.384 0.96-0.64 0.128-0.128 0.064-0.384 0.192-0.512 12.352-12.352 32.448-12.352 44.864 0l640.384 640.448c12.352 12.352 12.352 32.448 0 44.8z" />
<glyph unicode="&#xe632;" glyph-name="blocked-naught" d="M512 939.52c-271.456 0-491.52-220.064-491.52-491.52s220.064-491.52 491.52-491.52c271.52 0 491.52 220.064 491.52 491.52s-220 491.52-491.52 491.52zM776.512 712.384l-0.096 0.096c0-0.064 0.096-0.096 0.096-0.096zM138.048 448c0 206.528 167.424 373.952 373.952 373.952 89.792 0 172.224-31.648 236.736-84.384l-526.272-526.24c-52.8 64.448-84.416 146.848-84.416 236.64zM247.488 183.616l0.096-0.096c-0.064 0.064-0.064 0.064-0.096 0.096zM512 73.984c-89.792 0-172.192 31.68-236.64 84.416l526.144 526.24c52.8-64.448 84.48-146.848 84.48-236.64 0.064-206.528-167.488-374.016-373.952-374.016z" />
<glyph unicode="&#xe633;" glyph-name="arrow-up-thin" d="M854.848 276.16c0 0-350.656 385.152-352 386.56-6.336 6.336-14.656 9.088-22.912 8.704-8.192 0.32-16.512-2.432-22.72-8.768-1.344-1.344-352-386.496-352-386.496-11.904-11.904-11.904-31.168 0-43.072 11.904-11.968 31.168-11.968 43.136 0l331.648 361.664 331.776-361.664c11.904-11.968 31.104-11.968 43.136 0 11.84 11.904 11.84 31.168-0.064 43.072z" />
<glyph unicode="&#xe635;" glyph-name="arrow-up-caret" d="M792.736 374.432c-20.832 21.408-240.384 230.496-240.384 230.496-11.168 11.424-25.76 17.152-40.352 17.152-14.656 0-29.248-5.728-40.352-17.152 0 0-219.552-209.088-240.448-230.496-20.832-21.408-22.272-59.904 0-82.752 22.336-22.784 53.408-24.64 80.704 0l200.096 191.84 200.032-191.84c27.328-24.64 58.464-22.784 80.704 0 22.336 22.88 20.928 61.376 0 82.752z" />
<glyph unicode="&#xe636;" glyph-name="arrow-right-thin" d="M726.848 470.72c-1.472 1.408-386.624 352-386.624 352-11.904 11.904-31.232 11.904-43.136 0s-11.904-31.168 0-43.136l361.792-331.712-361.664-331.712c-11.904-11.904-11.904-31.168 0-43.136 11.904-11.904 31.232-11.904 43.136 0 0 0 385.088 350.656 386.432 352.064 6.272 6.272 9.152 14.528 8.768 22.656 0.32 8.32-2.432 16.704-8.704 22.976z" />
<glyph unicode="&#xe638;" glyph-name="reports" d="M352 639.936h256c17.6 0 32 14.336 32 32s-14.4 32-32 32h-256c-17.664 0-32-14.336-32-32s14.336-32 32-32zM128 767.936c-35.328 0-64-28.608-64-64v-703.936c0-35.392 28.672-64.064 64-64.064h704c35.392 0 64 28.672 64 64.064h-768v767.936zM800 511.936h-448c-17.664 0-32-14.336-32-32 0-17.6 14.336-32 32-32h448c17.6 0 32 14.4 32 32 0 17.664-14.4 32-32 32zM800 319.936h-448c-17.664 0-32-14.336-32-32 0-17.6 14.336-32 32-32h448c17.6 0 32 14.4 32 32 0 17.664-14.4 32-32 32zM896 895.936h-640c-35.328 0-64-28.608-64-64v-704c0-35.328 28.672-64 64-64h640c35.392 0 64 28.672 64 64v704c0 35.392-28.608 64-64 64zM896 159.936c0-17.6-14.4-32-32-32h-576c-17.664 0-32 14.4-32 32v640c0 17.664 14.336 32 32 32h576c17.6 0 32-14.336 32-32v-640z" />
<glyph unicode="&#xe639;" glyph-name="sql-runner" d="M643.136 483.328c36.736 29.312 60.736 73.92 60.736 124.608 0 77.376-54.976 141.952-127.872 156.736v131.264h-63.936v-131.264c-72.896-14.784-127.808-79.36-127.808-156.736 0-50.688 24-95.296 60.672-124.608l-132.416-215.296c-86.208 57.28-152.192 142.528-182.464 243.904h-66.24c32.192-124.416 110.848-229.184 215.424-298.176l-150.848-245.44 54.4-32.064 151.104 245.824c68.48-33.856 145.088-54.144 226.752-54.144 71.616 0 139.2 15.424 201.088 41.856l143.616-233.536 54.4 32.064-316.608 515.008zM544 703.936c52.992 0 95.872-43.008 95.872-96s-42.88-96-95.872-96c-52.928 0-95.872 43.008-95.872 96s43.008 96 95.872 96zM560.64 191.936c-69.376 0-134.592 16.704-193.28 44.672l133.888 217.792c13.696-3.776 27.904-6.464 42.752-6.464 14.912 0 29.056 2.688 42.688 6.528l141.248-229.696c-51.712-20.864-107.904-32.832-167.296-32.832z" />
<glyph unicode="&#xe63b;" glyph-name="warning-outline" d="M512 159.936h64v64h-64v-64zM544 895.936l-480-896h960l-480 896zM544 799.936l384-736h-768l384 736zM544 575.936c-17.6 0-32-14.336-32-32v-224c0-17.664 14.336-32 32-32s32 14.336 32 32v224c0 17.664-14.336 32-32 32z" />
<glyph unicode="&#xe63c;" glyph-name="warning-filled" d="M999.008 39.328l-456.096 800.32c-6.304 11.072-18.112 17.856-30.912 17.856s-24.576-6.816-30.912-17.856l-456.032-800.32c-6.208-10.848-6.080-24.128 0.256-34.88s18.016-17.344 30.624-17.344h912.128c12.48 0 24.224 6.592 30.624 17.344 6.336 10.752 6.464 24 0.352 34.88zM568.32 89.504h-112.64v102.4h112.64v-102.4zM568.32 268.704h-112.64v307.2h112.64v-307.2z" />
<glyph unicode="&#xe63d;" glyph-name="question-filled" d="M505.76 918.976c-260.16-3.488-468.224-217.184-464.736-477.344 3.488-260 217.184-468.128 477.344-464.64 260.032 3.488 468.16 217.184 464.64 477.344-3.424 260.032-217.152 468.128-477.248 464.64zM504.384 161.28h-2.624c-40.032 1.184-68.288 30.72-67.168 70.208 1.12 38.752 30.048 66.976 68.8 66.976l2.368-0.064c41.152-1.216 69.12-30.464 67.904-71.072-1.12-38.848-29.632-66.048-69.28-66.048zM672.864 495.712c-9.472-13.376-30.144-30.016-56.256-50.336l-28.768-19.872c-15.776-12.288-25.28-23.808-28.832-35.136-2.88-9.024-4.192-11.328-4.448-29.504l-0.064-4.672h-109.728l0.32 9.312c1.344 38.208 2.304 60.608 18.112 79.2 24.832 29.12 79.616 64.416 81.92 65.888 7.84 5.952 14.432 12.64 19.392 19.808 11.52 15.872 16.576 28.416 16.576 40.64 0 17.056-5.056 32.832-15.040 46.848-9.632 13.568-27.904 20.416-54.336 20.416-26.208 0-44.128-8.352-54.88-25.408-11.104-17.568-16.64-35.936-16.64-54.784v-4.704h-113.152l0.192 4.928c2.912 69.312 27.648 119.2 73.536 148.32 28.768 18.592 64.608 27.968 106.4 27.968 54.72 0 101.024-13.312 137.376-39.52 36.864-26.56 55.552-66.4 55.552-118.336 0-29.088-9.152-56.384-27.232-81.152z" />
<glyph unicode="&#xe640;" glyph-name="chat-available" d="M831.488 960h-638.976c-106.496 0-192.512-86.016-192.512-196.608v-417.792c0-106.496 86.016-163.84 192.512-163.84h389.12l282.624-245.76v245.76c94.208 8.192 163.84 61.44 163.84 159.744v421.888c-4.096 110.592-90.112 196.608-196.608 196.608zM266.24 509.44c-32.768 0-61.44 28.672-61.44 61.44 0 36.864 28.672 61.44 61.44 61.44s61.44-24.576 61.44-61.44c0-32.768-28.672-61.44-61.44-61.44zM512 509.44c-32.768 0-61.44 28.672-61.44 61.44 0 36.864 28.672 61.44 61.44 61.44s61.44-24.576 61.44-61.44c0-32.768-28.672-61.44-61.44-61.44zM757.76 509.44c-32.768 0-61.44 28.672-61.44 61.44 0 36.864 28.672 61.44 61.44 61.44s61.44-24.576 61.44-61.44c0-32.768-28.672-61.44-61.44-61.44z" />
<glyph unicode="&#xe641;" glyph-name="chat-unavailable" d="M256 639.872c-35.328 0-64-28.608-64-64s28.608-64 64-64c35.328 0 64 28.608 64 64s-28.672 64-64 64zM512 639.872c-35.328 0-64-28.608-64-64s28.608-64 64-64 64 28.608 64 64-28.608 64-64 64zM768 639.872c-35.392 0-64-28.608-64-64s28.608-64 64-64 64 28.608 64 64-28.608 64-64 64zM832 959.872h-640c-106.048 0-192-85.952-192-192v-416c0-105.984 85.952-160 192-160h384l256-256v256c105.984 0 192 54.016 192 160v416c0 106.048-86.016 192-192 192zM960 351.872c0-70.656-57.28-96-128-96h-64v-160l-160 160h-416c-70.656 0-128 25.344-128 96v416c0 70.72 57.344 128 128 128h640c70.72 0 128-57.28 128-128v-416z" />
<glyph unicode="&#xe643;" glyph-name="logo-rings-ish" horiz-adv-x="736" d="M465.547 475.275c-49.728 0-96.341-13.483-136.501-36.885l38.987-51.509c29.109 15.52 62.283 24.395 97.515 24.395 114.688 0 208-93.312 208-208s-93.312-208-208-208c-114.688 0-208 93.312-208 208 0 56.448 22.677 107.648 59.317 145.163l-38.955 51.467c-51.915-49.568-84.363-119.36-84.363-196.629 0-149.984 122.016-272 272-272s272 122.016 272 272c0 149.984-122.027 272-272 272v0zM289.547 587.275c0-25.141-8.427-48.288-22.464-66.997l39.541-52.245c29.024 31.392 46.933 73.216 46.933 119.243 0 38.315-12.448 73.707-33.312 102.635l-46.912-44.875c10.208-16.885 16.213-36.608 16.213-57.76v0zM177.547 475.275c-61.76 0-112 50.24-112 112s50.24 112 112 112c17.301 0 33.643-4.064 48.288-11.093l48.213 46.112c-27.733 18.272-60.875 28.981-96.501 28.981-97.045 0-176-78.955-176-176s78.955-176 176-176c27.968 0 54.336 6.731 77.845 18.389l-39.691 52.448c-11.936-4.341-24.747-6.837-38.155-6.837v0zM353.547 827.275c0 35.296 28.704 64 64 64s64-28.704 64-64c0-35.296-28.704-64-64-64-6.219 0-12.213 0.939-17.899 2.592l-49.408-47.264c19.584-12.181 42.603-19.328 67.307-19.328 70.581 0 128 57.419 128 128s-57.419 128-128 128c-70.581 0-128-57.419-128-128 0-22.688 5.995-43.979 16.395-62.475l49.493 47.339c-1.195 4.864-1.888 9.92-1.888 15.136v0zM306.613 468.032c-14.539-15.723-31.851-28.757-51.221-38.368l22.517-29.76c15.435 14.741 32.587 27.669 51.136 38.485l-22.432 29.643zM320.224 689.909l30.005 28.704c-18.379 11.424-33.675 27.296-44.299 46.197l-31.893-30.507c17.995-11.861 33.6-26.944 46.187-44.395v0zM368.021 386.88l-38.987 51.509c-18.549-10.816-35.701-23.744-51.136-38.485l38.955-51.467c14.933 15.296 32.16 28.309 51.168 38.443v0zM273.312 645.035l46.912 44.875c-12.587 17.451-28.192 32.533-46.187 44.384l-48.213-46.112c19.723-9.483 36.224-24.523 47.488-43.147v0zM306.613 468.032l-39.541 52.245c-12.96-17.269-30.741-30.645-51.381-38.165l39.691-52.448c19.381 9.611 36.693 22.645 51.232 38.368v0zM350.229 718.613l49.408 47.264c-21.824 6.368-38.805 24.064-44.213 46.272l-49.493-47.339c10.624-18.912 25.931-34.773 44.299-46.197v0z" />
<glyph unicode="&#xe644;" glyph-name="edit" d="M525.504 352.384l497.6 497.792-45.248 45.248-497.536-497.728 45.184-45.312zM831.744 31.936c0-17.664-14.4-32.064-32-32.064h-639.744c-17.728 0-32 14.4-32 32.064v640c0 17.6 14.336 32 32 32h479.808v64h-511.808c-35.328 0-64-28.672-64-64v-704.064c0-35.264 28.608-63.936 64-63.936h703.808c35.264 0 63.872 28.672 63.872 63.936v512.064h-63.872v-480z" />
<glyph unicode="&#xe645;" glyph-name="question-outline" d="M516.72 960.096c-282.752 0-512-229.248-512-512.032s229.248-512 512-512c282.784 0 512 229.216 512 512s-229.216 512.032-512 512.032v0zM516.72 0.064c-247.424 0-448 200.592-448 448s200.576 448 448 448c247.44 0 448-200.592 448-448s-200.56-448-448-448v0zM524.032 687.936c-66.192 0-117.76-27.216-151.2-71.216l34.832-37.712c25.792 34.912 58.544 57.216 111.504 57.216 54.368 0 81.536-30 81.536-64.912 0-74.032-125.44-80.992-125.44-169.664 0-21.648 7.664-41.248 26.48-57.28l42.512 18.88c-11.856 8.336-18.128 22.336-18.128 33.536 0 68.4 134.48 77.472 134.48 182.944 0 60.016-51.552 108.208-136.576 108.208v0zM516.384 285.040c-20.912 0-38.336-17.472-38.336-38.4 0-20.944 17.424-38.4 38.336-38.4s38.336 17.472 38.336 38.4c-0.016 20.928-17.44 38.4-38.336 38.4v0z" />
<glyph unicode="&#xe646;" glyph-name="public" d="M1022.88 480.064c-16.528 267.84-238.896 480-510.912 480-272 0-494.368-212.16-510.912-480h-1.088v-64h1.088c16.528-267.824 238.896-479.968 510.912-479.968s494.368 212.144 510.912 479.968h1.088v64h-1.088zM854.656 736.064h-57.040c-33.872-9.424-75.168-17.136-121.456-22.672-15.872 69.728-37.808 128.56-63.872 171.248 96.464-22.064 180.848-75.392 242.368-148.576v0zM384.336 416.064h255.28c-1.184-58.976-5.648-114.784-12.736-165.264-36.72 3.376-75.152 5.264-114.896 5.264s-78.176-1.888-114.896-5.264c-7.088 50.48-11.552 106.288-12.752 165.264v0zM384.336 480.064c1.2 59.040 5.664 114.912 12.768 165.424 36.688-3.472 75.12-5.424 114.88-5.424s78.192 1.952 114.88 5.424c7.088-50.528 11.568-106.384 12.752-165.424h-255.28zM511.984 896.064c43.024 0 81.040-74.336 104.24-188.256-33.184-2.352-68-3.744-104.24-3.744-36.224 0-71.040 1.392-104.224 3.744 23.184 113.904 61.2 188.256 104.224 188.256v0zM411.664 884.656c-26.064-42.688-48-101.52-63.888-171.248-46.272 5.52-87.584 13.232-121.456 22.656h-57.040c61.536 73.184 145.936 126.512 242.384 148.592v0zM147.136 707.392c47.488-23.824 112.784-42.736 188.944-54.4-8.784-53.52-14.288-111.728-15.712-172.944h-255.008c5.984 84.448 35.488 162.288 81.776 227.344v0zM320.368 416.064c1.408-61.056 6.912-119.136 15.648-172.544-76.208-11.296-141.872-29.648-190.208-52.8-45.488 64.672-74.528 141.76-80.448 225.344h255.008zM169.296 160.064h52.864c34.944 9.6 77.632 17.456 125.552 23.008 15.888-69.888 37.856-128.848 63.968-171.6-96.464 22.080-180.848 75.392-242.384 148.592v0zM511.984 0.064c-43.024 0-81.072 74.416-104.256 188.416 33.232 2.304 68.048 3.648 104.256 3.648 36.224 0 71.040-1.36 104.256-3.648-23.184-114-61.216-188.416-104.256-188.416v0zM612.272 11.472c26.112 42.752 48.080 101.712 63.968 171.584 47.92-5.552 90.608-13.408 125.568-23.008h52.848c-61.536-73.184-145.92-126.496-242.384-148.576v0zM878.144 190.704c-48.352 23.168-114 41.504-190.208 52.8 8.736 53.408 14.24 111.488 15.648 172.544h255.008c-5.92-83.584-34.96-160.672-80.448-225.344v0zM703.584 480.064c-1.424 61.216-6.928 119.424-15.712 172.944 76.144 11.648 141.456 30.576 188.944 54.4 46.288-65.056 75.792-142.896 81.776-227.328l-255.008-0.016z" />
<glyph unicode="&#xe647;" glyph-name="users" d="M922.548 328.533c-17.067 15.17-129.896 44.563-188.681 58.785 54.993 52.148 87.23 140.326 87.23 223.763 0 129.896-36.030 235.141-197.215 235.141-51.2 0-89.126-10.43-118.519-29.393 39.822-2.844 71.111-12.326 95.763-28.444 6.637 0.948 14.222 0.948 22.756 0.948 117.57 0 140.326-80.593 140.326-181.096 0-73.007-28.444-152.652-77.748-190.578v-36.030l7.585-25.6c58.785-15.17 157.393-41.719 181.096-52.148 33.185-15.17 44.563-90.074 0-105.244h-86.281c2.844-18.015 3.793-36.978 0-54.044 140.326 4.741 150.756 14.222 150.756 14.222 38.874 51.2 19.911 135.585-17.067 169.719zM506.311 302.933c55.941 54.993 89.126 148.859 89.126 237.985 0 137.481-36.030 248.415-197.215 248.415s-197.215-110.933-197.215-248.415c0-89.126 33.185-183.941 89.126-238.933-58.785-14.222-173.511-43.615-190.578-58.785-37.926-34.133-55.941-118.519-18.963-168.77 0 0 21.807-17.067 318.578-17.067 297.719 0 315.733 17.067 315.733 17.067 36.978 50.252 18.963 134.637-18.963 168.77-15.17 16.119-131.793 45.511-189.63 59.733zM650.43 114.252l-256 0.948c0 0-249.363-0.948-249.363-0.948-50.252 18.015-24.652 91.022 8.533 105.244 25.6 11.378 124.207 40.77 174.459 54.993l6.637 22.756v37.926c-49.304 40.77-77.748 126.104-77.748 203.852 0 107.141 23.704 193.422 140.326 193.422 117.57 0 140.326-86.281 140.326-193.422 0-77.748-28.444-163.081-77.748-203.852v-37.926l7.585-25.6c58.785-15.17 157.393-41.719 181.096-52.148 35.081-14.222 46.459-90.074 1.896-105.244z" />
<glyph unicode="&#xe649;" glyph-name="arrow-right-caret" d="M438.432 728.768c21.408-20.896 230.496-240.448 230.496-240.448 11.456-11.168 17.152-25.76 17.152-40.352s-5.696-29.184-17.152-40.352c0 0-209.088-219.552-230.496-240.384-21.408-20.896-59.84-22.336-82.752 0-22.848 22.272-24.64 53.344 0 80.64l191.904 200.096-191.84 200.096c-24.64 27.328-22.848 58.432 0 80.704s61.344 20.896 82.688 0z" />
<glyph unicode="&#xe64a;" glyph-name="arrow-left-thin" d="M395.52 448.96l363.264 332.544c12.032 11.968 12.032 31.296 0 43.264-11.904 11.904-31.232 11.904-43.264 0 0 0-386.88-351.488-388.288-352.96-6.4-6.336-9.152-14.656-8.768-22.976-0.32-8.192 2.496-16.512 8.768-22.784 1.408-1.344 388.288-352.96 388.288-352.96 11.904-11.968 31.232-11.968 43.264 0s12.032 31.296 0 43.264l-363.264 332.608z" />
<glyph unicode="&#xe64c;" glyph-name="arrow-left-caret" d="M585.568 728.768c-21.408-20.896-230.496-240.448-230.496-240.448-11.424-11.168-17.088-25.76-17.088-40.352s5.696-29.184 17.088-40.352c0 0 209.088-219.552 230.496-240.384 21.408-20.896 59.904-22.336 82.752 0 22.784 22.272 24.576 53.344-0.064 80.64l-191.84 200.096 191.84 200.096c24.64 27.328 22.848 58.432 0.064 80.704-22.88 22.272-61.376 20.896-82.752 0z" />
<glyph unicode="&#xe64d;" glyph-name="arrow-down-thin" d="M886.848 662.72c-12.032 11.968-31.232 11.968-43.136 0l-331.712-361.664-331.712 361.6c-11.968 11.968-31.232 11.968-43.136 0-11.904-11.904-11.904-31.168 0-43.072 0 0 350.592-385.152 352-386.496 6.272-6.272 14.528-9.088 22.72-8.768 8.256-0.384 16.64 2.368 22.912 8.704 1.408 1.408 352 386.56 352 386.56 11.968 11.968 11.968 31.232 0.064 43.136z" />
<glyph unicode="&#xe64f;" glyph-name="arrow-down-caret" d="M792.736 521.568c-20.832-21.408-240.384-230.56-240.384-230.56-11.168-11.424-25.76-17.088-40.352-17.088-14.656 0-29.248 5.696-40.352 17.088 0 0-219.552 209.152-240.448 230.56-20.832 21.408-22.272 59.84 0 82.752 22.336 22.848 53.408 24.64 80.704 0l200.096-191.904 200.032 191.84c27.328 24.64 58.464 22.848 80.704 0 22.336-22.848 20.928-61.344 0-82.688z" />
<glyph unicode="&#xe7a9;" glyph-name="hamburger" d="M224 639.936h576c17.6 0 32 14.4 32 32 0 17.664-14.4 32-32 32h-576c-17.664 0-32-14.336-32-32 0-17.6 14.336-32 32-32zM800 191.936h-576c-17.664 0-32-14.336-32-32 0-17.6 14.336-32 32-32h576c17.6 0 32 14.4 32 32 0 17.664-14.4 32-32 32zM800 447.936h-576c-17.664 0-32-14.336-32-32 0-17.6 14.336-32 32-32h576c17.6 0 32 14.4 32 32 0 17.664-14.4 32-32 32z" />
<glyph unicode="&#xe811;" glyph-name="beaker" d="M704 831.936c35.392 0 64 28.608 64 64 0 35.328-28.608 64-64 64s-64-28.672-64-64c0-35.392 28.608-64 64-64zM512 767.872c35.328 0 64 28.672 64 64.064 0 35.328-28.608 64-64 64s-64-28.672-64-64c0-35.392 28.672-64.064 64-64.064zM881.728-0.64c-64.256 123.648-177.728 384.576-177.728 384.576v256h32c17.6 0 32 14.336 32 32 0 17.6-14.4 32-32 32h-384c-17.664 0-32-14.4-32-32 0-17.664 14.336-32 32-32h32v-256c0 0-110.976-270.144-173.76-390.848-29.696-57.216-29.696-57.216 41.152-57.216 154.496 0 455.616 0 601.472 0 28.608 0 61.888 0 28.864 63.488zM448 383.936v256h192v-256c0 0 11.264-26.432 27.392-64h-245.376c15.36 37.504 25.984 64 25.984 64zM764.032-0.064c-121.472 0-297.792 0-426.56 0-59.008 0-59.008 0-34.24 48.96 26.24 51.968 62.592 136.064 92.288 207.040h299.776c30.144-68.544 66.496-149.376 92.864-201.536 27.456-54.464-0.256-54.464-24.128-54.464z" />
<glyph unicode="&#xe873;" glyph-name="clock" d="M320 191.872h64v64h-64v-64zM192 383.936h64v64h-64v-64zM768 703.872h-64v-64h64v64zM320 639.872h64v64h-64v-64zM512 63.936h64v64h-64v-64zM576 767.936h-64v-384h320v64.064h-256v319.936zM704 191.872h64v64h-64v-64zM544 896c-265.088 0-480-214.912-480-480 0-265.152 214.912-480.064 480-480.064 265.152 0 480 214.912 480 480.064 0 265.088-214.848 480-480 480zM544-0.064c-229.696 0-416 186.24-416 416.064 0 229.696 186.24 415.936 416 415.936s416-186.24 416-415.936c0-229.824-186.24-416.064-416-416.064z" />
<glyph unicode="&#xe900;" glyph-name="expand-collapse" d="M907.636 866.909c0 12.853-10.42 23.273-23.273 23.273s-23.273-10.42-23.273-23.273v-837.818c0-12.853 10.42-23.273 23.273-23.273s23.273 10.42 23.273 23.273v837.818zM637.348 429.63c10.146-7.891 24.767-6.063 32.658 4.082s6.063 24.767-4.082 32.658l-209.455 162.909c-10.146 7.891-24.767 6.063-32.658-4.082s-6.063-24.767 4.082-32.658l209.455-162.909zM665.924 429.63c10.146 7.891 11.973 22.513 4.082 32.658s-22.513 11.973-32.658 4.082l-209.455-162.909c-10.146-7.891-11.973-22.513-4.082-32.658s22.513-11.973 32.658-4.082l209.455 162.909zM651.636 424.727c12.853 0 23.273 10.42 23.273 23.273s-10.42 23.273-23.273 23.273h-535.273c-12.853 0-23.273-10.42-23.273-23.273s10.42-23.273 23.273-23.273h535.273z" />
<glyph unicode="&#xe901;" glyph-name="dimension-fill" d="M53.12 623.104c-29.322 0-53.12-37.991-53.12-84.992v-169.984c0-46.916 23.798-84.992 53.12-84.992h743.68c29.375 0 53.12 38.076 53.12 84.992v169.984c0 47.001-23.745 84.992-53.12 84.992h-743.68zM723.139 368.128h-592.945c-13.458 0-44.861 19.038-44.861 42.496v84.992c0 23.458 31.403 42.496 44.861 42.496h592.945c13.41 0 44.861-19.038 44.861-42.496v-84.992c0-23.458-31.451-42.496-44.861-42.496zM224 198.144c-29.44 0-53.333-18.996-53.333-42.496v-84.992c0-23.458 23.893-42.496 53.333-42.496h746.667c29.493 0 53.333 19.038 53.333 42.496v84.992c0 23.5-23.84 42.496-53.333 42.496h-746.667zM224 878.080c-29.44 0-53.333-19.038-53.333-42.496v-84.992c0-23.5 23.893-42.496 53.333-42.496h746.667c29.493 0 53.333 18.996 53.333 42.496v84.992c0 23.458-23.84 42.496-53.333 42.496h-746.667z" />
<glyph unicode="&#xe902;" glyph-name="heart-filled" d="M520.877 746.848c-198.246 174.575-434.957 88.767-434.957-162.739s434.957-529.642 434.957-529.642 434.957 278.136 434.957 529.642-260.383 340.273-434.957 162.739z" />
<glyph unicode="&#xe903;" glyph-name="heart-outline" d="M520.882 57.177l-8.882 5.922c-17.765 11.843-426.353 272.392-426.353 524.059 0 115.471 50.333 201.333 133.235 239.823 88.823 41.451 204.294 17.765 302-62.176 85.863 79.941 192.451 106.588 287.196 65.137 91.784-38.49 148.039-130.274 148.039-245.745 0-248.706-411.549-512.215-426.353-524.059l-8.882-2.961zM313.628 818.098c-29.608 0-56.255-5.922-79.941-17.765-74.020-32.569-115.471-112.51-115.471-213.176 0-213.176 346.412-453 405.627-491.49 59.216 38.49 405.627 278.314 405.627 491.49 0 103.627-47.373 183.569-130.274 216.137-85.863 35.529-186.529 8.882-263.51-68.098l-8.882-11.843-14.804 8.882c-62.176 56.255-133.235 85.863-198.372 85.863z" />
<glyph unicode="&#xe904;" glyph-name="user-attribute" d="M512 362.667h85.333v-85.333h-85.333v85.333zM682.667 362.667h341.333v-85.333h-341.333v85.333zM512 192h85.333v-85.333h-85.333v85.333zM682.667 192h341.333v-85.333h-341.333v85.333zM512 21.333h85.333v-85.333h-85.333v85.333zM682.667 21.333h341.333v-85.333h-341.333v85.333zM222.903 330.863c-131.078-22.596-129.86-22.349-145.651-37.264-54.767-51.661-70.673-163.43-24.186-229.266l2.434-3.447 3.244-2.698c9.489-7.892 27.985-12.635 68.204-16.963 57.952-6.236 152.151-9.933 291.248-9.933v64c-137.005 0-229.093 3.615-284.401 9.566-15.034 1.618-26.057 3.279-33.535 4.844-20.753 40.606-9.251 108.894 20.923 137.357-2.438-2.302-0.412-1.422 3.127-0.37 6.441 1.916 15.5 4.055 27.2 6.433 10.396 2.114 22.565 4.362 38.408 7.132 9.229 1.614 42.773 7.352 43.857 7.539 50.286 8.669 79.527 14.493 102.648 21.2 16.84 4.885 28.934 9.861 37.886 16.777 21.028 16.243 22.88 44.866 0.98 62.567-80.183 64.808-132.397 160.004-132.397 253.538 0 157.882 51.457 229.325 198.554 229.325 147.128 0 198.554-71.412 198.554-229.325 0-38.964-12.837-82.884-36.095-127.788l56.83-29.434c27.615 53.318 43.265 106.86 43.265 157.222 0 189.586-74.705 293.325-262.554 293.325-187.814 0-262.554-103.768-262.554-293.325 0-101.067 48.327-200.9 124.703-275.367-18.697-4.512-43.724-9.272-80.693-15.645z" />
<glyph unicode="&#xe905;" glyph-name="refresh" d="M889.68 793.68c-93.608 102.216-228.154 166.32-377.68 166.32-282.77 0-512-229.23-512-512h96c0 229.75 186.25 416 416 416 123.020 0 233.542-53.418 309.696-138.306l-149.696-149.694h352v352l-134.32-134.32zM928 448c0-229.75-186.25-416-416-416-123.020 0-233.542 53.418-309.694 138.306l149.694 149.694h-352v-352l134.32 134.32c93.608-102.216 228.154-166.32 377.68-166.32 282.77 0 512 229.23 512 512h-96z" />
<glyph unicode="&#xe906;" glyph-name="calendar" d="M832 255.936h-192v-192h192v192zM768 127.936h-64v64h64v-64zM832 511.936h-192v-192h192v192zM768 383.936h-64v64h64v-64zM928 895.936h-224v64.064h-64v-64.064h-320v64.064h-64v-64.064h-192c-35.328 0-64-28.608-64-64v-832c0-35.392 28.672-64 64-64h832c35.392 0 64 28.608 64 64v832c0 35.392 3.392 64-32 64zM896 31.936c0-17.664-14.4-32-32-32h-768c-17.664 0-32 14.336-32 32v608h832v-608zM896 703.936h-832v96c0 17.664 14.336 32 32 32h160v-64h64v64h320v-64h64v64h160c17.6 0 32-14.336 32-32v-96zM320 255.936h-192v-192h192v192zM256 127.936h-64v64h64v-64zM576 255.936h-192v-192h192v192zM512 127.936h-64v64h64v-64zM320 511.936h-192v-192h192v192zM256 383.936h-64v64h64v-64zM576 511.936h-192v-192h192v192zM512 383.936h-64v64h64v-64z" />
<glyph unicode="&#xe907;" glyph-name="file" horiz-adv-x="1280" d="M1280 576l-384 384h-768c-70.4 0-128-57.6-128-128v-768.64c0-70.4 57.6-127.36 128-127.36l1024 0.64c70.4 0 128 56.96 128 127.36v512zM832 864l352-352h-352v352z" />
<glyph unicode="&#xe908;" glyph-name="dashboard-file" horiz-adv-x="1280" d="M1152 960h-1024c-70.4 0-127.36-57.6-127.36-128l-0.64-768c0-70.4 57.6-128 128-128h1024c70.4 0 128 57.6 128 128v768c0 70.4-57.6 128-128 128zM832 64h-704v256h704v-256zM832 384h-704v256h704v-256zM1152 64h-256v576h256v-576z" />
<glyph unicode="&#xe909;" glyph-name="document-file" horiz-adv-x="819" d="M0.519 857.6c0 56.32 45.556 102.4 101.881 102.4h409.6l307.2-307.2v-614.4c0-56.32-46.072-102.4-102.4-102.4h-614.919c-56.311 0-101.881 46.080-101.881 102.4l0.519 819.2zM460.8 883.2v-281.6h281.6l-281.6 281.6zM363.644 78.359c34.904 34.217 52.37 82.959 52.37 146.219 0 58.765-16.593 103.704-49.778 134.815-33.022 31.111-79.941 46.666-140.785 46.666h-131.186v-379.037h122.637c63.081 0 112 17.112 146.741 51.337zM288.978 298.208c13.822-16.766 20.74-42.519 20.74-77.26 0-37.163-7.259-64.818-21.778-82.962-14.518-17.977-37.333-26.965-68.444-26.965h-22.815v212.335h29.808c28 0 48.83-8.383 62.489-25.148zM703.926 62.020c25.926 26.965 38.889 64.474 38.889 112.519 0 30.594-6.045 57.298-18.148 80.113-11.926 22.988-28.948 40.617-51.067 52.888s-47.615 18.408-76.489 18.408c-46.666 0-82.963-13.309-108.889-39.926-25.748-26.444-38.622-63.605-38.622-111.483 0-46.839 13.141-83.998 39.408-111.479 26.444-27.481 61.955-41.225 106.548-41.225 46.504 0 82.622 13.395 108.37 40.186zM562.637 116.725c-6.741 13.312-10.119 32.578-10.119 57.814s3.378 44.162 10.119 56.78c6.741 12.79 17.881 19.185 33.437 19.185 15.911 0 27.141-6.395 33.703-19.185 6.578-12.79 9.852-31.718 9.852-56.78 0-25.236-3.275-44.502-9.852-57.814-6.385-13.138-17.451-19.699-33.185-19.699-15.896 0-27.214 6.561-33.955 19.699z" />
<glyph unicode="&#xe90a;" glyph-name="model-file" horiz-adv-x="1280" d="M1120 960h-960c-88 0-160-57.6-160-128v-768c0-70.4 72-128 160-128h960c87.996 0 160 57.6 160 128v768c0 70.4-72.004 128-160 128zM1104.64 384h-928v128h928v-128zM784.64 128h-608v128h608v-128zM1104.64 640h-928v128h928v-128z" />
<glyph unicode="&#xe90b;" glyph-name="view-file" horiz-adv-x="1280" d="M1152 960h-1024c-70.4 0-127.367-57.6-127.367-128l-0.633-768c0-70.4 57.6-128 128-128h1024c70.4 0 128 57.6 128 128v768c0 70.4-57.6 128-128 128zM1152 64h-288v512h288.102l-0.102-512zM1152.102 640h-288.102v192h288l0.102-192zM800 640h-320v192.084h320v-192.084zM415.9 640h-287.8v-64h287.8v-511.915h-288v767.998h288v-192.084zM480 576h320v-511.915h-320v511.915z" />
<glyph unicode="&#xe90c;" glyph-name="browse-table" d="M384 384h-256c-38.4 0-64-25.6-64-64v-256c0-38.4 25.6-64 64-64h256c38.4 0 64 25.6 64 64v256c0 38.4-25.6 64-64 64zM384 96c0-19.2-12.8-32-32-32h-192c-19.2 0-32 12.8-32 32v192c0 19.2 12.8 32 32 32h192c19.2 0 32-12.8 32-32v-192zM384 896h-256c-38.4 0-64-25.6-64-64v-256c0-38.4 25.6-64 64-64h256c38.4 0 64 25.6 64 64v256c0 38.4-25.6 64-64 64zM384 608c0-19.2-12.8-32-32-32h-192c-19.2 0-32 12.8-32 32v192c0 19.2 12.8 32 32 32h192c19.2 0 32-12.8 32-32v-192zM563.2 832h384v-64h-384v64zM563.2 640h384v-64h-384v64zM563.2 320h384v-64h-384v64zM563.2 128h384v-64h-384v64z" />
<glyph unicode="&#xe90d;" glyph-name="add-new" d="M1020.668 376.797h-437.429v-437.401h-145.81v437.401h-437.429v145.801h437.429v437.402h145.81v-437.402h437.429v-145.801z" />
<glyph unicode="&#xe90e;" glyph-name="find-selected" d="M409.421 843.030c80.714 0 153.825-32.752 207.050-85.388l-148.562-148.552h350.932v350.91l-119.901-119.894c-74.283 74.276-176.637 119.894-289.52 119.894-206.465 0-376.082-152.646-404.742-350.91h118.147c26.905 133.346 145.052 233.94 286.594 233.94zM739.299 308.476c38.6 52.641 65.507 115.217 74.862 183.644h-118.148c-26.902-133.347-145.050-233.942-286.593-233.942-80.714 0-153.825 32.751-207.050 85.391l148.561 148.551h-350.932v-350.909l119.902 119.895c74.28-74.278 176.636-119.895 289.519-119.895 90.658 0 174.294 29.829 242.144 79.536l284.255-283.648 87.144 87.138-283.665 284.238z" />
<glyph unicode="&#xe90f;" glyph-name="sort-alpha" horiz-adv-x="1066" d="M701.024 835.988h-248.037l124.018 124.012 124.018-124.012zM454.564 63.018h244.885l-122.443-122.438-122.442 122.438zM236.479 751.387l-236.479-602.192h96.693l48.347 128.738h268.534l48.346-128.738h96.695l-235.954 602.192h-86.183zM177.096 364.11l101.948 272.198 101.949-272.198h-203.897zM742.54 232.742h321.614v-83.547h-448.257v67.787l311.098 449.804h-308.998v84.076h436.172v-66.21l-311.629-451.91z" />
<glyph unicode="&#xe910;" glyph-name="change-history" horiz-adv-x="1283" d="M639.046 719.096l408.348-653.699h-816.699l408.351 653.699zM639.046 960l-639.046-1022.407h1278.085l-639.039 1022.407z" />
<glyph unicode="&#xe911;" glyph-name="more" d="M512-7.111c251.352 0 455.111 203.759 455.111 455.111s-203.759 455.111-455.111 455.111c-251.351 0-455.111-203.76-455.111-455.111s203.76-455.111 455.111-455.111zM1024 448c0-282.772-229.228-512-512-512-282.77 0-512 229.228-512 512 0 282.77 229.23 512 512 512 282.772 0 512-229.23 512-512zM516.832 399.953c-26.53 0-48.038 21.507-48.038 48.037s21.507 48.037 48.038 48.037c26.53 0 48.038-21.507 48.038-48.037s-21.507-48.037-48.038-48.037zM317.86 399.953c-26.53 0-48.037 21.507-48.037 48.037s21.507 48.037 48.037 48.037c26.53 0 48.037-21.507 48.037-48.037s-21.507-48.037-48.037-48.037zM715.803 399.953c-26.53 0-48.038 21.507-48.038 48.037s21.507 48.037 48.038 48.037c26.53 0 48.038-21.507 48.038-48.037s-21.507-48.037-48.038-48.037z" />
<glyph unicode="&#xe912;" glyph-name="delete-from-trash" d="M551.117 484.454h-21.914c-11.311 0-20.48-9.169-20.48-20.48v0-338.637c0-11.311 9.169-20.48 20.48-20.48v0h21.914c11.311 0 20.48 9.169 20.48 20.48v0 338.637c0 11.311-9.169 20.48-20.48 20.48v0zM545.997 130.56h-11.674v328.294h11.674zM338.842 484.454h-22.016c-11.311 0-20.48-9.169-20.48-20.48v0-338.637c0-11.311 9.169-20.48 20.48-20.48v0h22.016c11.311 0 20.48 9.169 20.48 20.48v0 338.637c0 11.311-9.169 20.48-20.48 20.48v0zM333.722 130.56h-11.776v328.294h11.776zM444.928 484.454h-21.914c-11.311 0-20.48-9.169-20.48-20.48v0-338.637c0-11.311 9.169-20.48 20.48-20.48v0h21.914c11.311 0 20.48 9.169 20.48 20.48v0 338.637c0 11.311-9.169 20.48-20.48 20.48v0zM440.32 130.56h-12.186v328.294h12.186zM911.974 263.066l-36.966 138.752c-3.477 12.821-15.009 22.095-28.707 22.095-2.719 0-5.352-0.365-7.853-1.050l0.208 0.049-65.536-17.51-40.243 151.347c-0.907 3.305-3.884 5.693-7.418 5.693-0.712 0-1.402-0.097-2.056-0.278l0.054 0.013-28.262-7.578v28.672c0 0.031 0.001 0.067 0.001 0.103 0 4.185-3.393 7.578-7.578 7.578-0.036 0-0.072 0-0.109-0.001h-26.209l12.698 59.802c0.095 0.456 0.149 0.981 0.149 1.518 0 3.698-2.579 6.793-6.036 7.586l-0.052 0.010-127.898 27.136v32.973c0 4.242-3.438 7.68-7.68 7.68v0h-209.408c-4.242 0-7.68-3.438-7.68-7.68v0-49.357l-107.315-11.878c-3.853-0.506-6.798-3.769-6.798-7.72 0-0.274 0.014-0.546 0.042-0.813l-0.003 0.033 6.554-58.88h-27.238c-4.242 0-7.68-3.438-7.68-7.68v0-66.56c0.057-4.218 3.462-7.623 7.675-7.68h15.058l26.419-463.872c0.276-4.015 3.602-7.168 7.663-7.168 0.006 0 0.012 0 0.018 0h408.575c0.005 0 0.011 0 0.017 0 4.061 0 7.386 3.153 7.662 7.144l0.001 0.024 24.474 426.906 113.562-426.701c0.952-3.299 3.944-5.67 7.49-5.67 0.686 0 1.351 0.089 1.985 0.255l-0.054-0.012 64.307 17.203c3.298 0.869 5.69 3.824 5.69 7.339 0 0.704-0.096 1.386-0.276 2.033l0.013-0.053-37.888 142.336 65.536 17.51c12.821 3.477 22.095 15.009 22.095 28.707 0 2.719-0.365 5.352-1.050 7.853l0.049-0.208zM540.16 660.787l104.96-22.221-10.24-47.206h-94.72zM340.992 701.747h174.080v-110.387h-81.101l-0.819 7.68-8.397 76.39c-0.506 3.853-3.769 6.798-7.72 6.798-0.274 0-0.546-0.014-0.813-0.042l0.033 0.003-75.264-8.909zM315.392 644.506l25.6 2.867 60.211 6.656 7.066-62.669h-174.080l-4.915 44.339zM621.466 63.693h-374.682l-25.498 445.747h425.574zM669.594 554.394v-6.554l-10.24-2.765c-3.305-0.907-5.693-3.884-5.693-7.418 0-0.712 0.097-1.402 0.278-2.056l-0.013 0.054v-1.024h-455.373v30.72h471.040zM833.434 77.619l-29.696-7.885-120.73 455.578 12.186 3.277 17.51 4.608zM792.474 332.083l24.678 6.554 13.21-49.459-24.781-6.554-6.861 25.088zM884.634 251.392l-40.96-10.854-24.474-6.554-0.717 2.662-5.632 21.197 41.984 11.264c3.341 0.882 5.764 3.877 5.764 7.437 0 0.668-0.085 1.317-0.246 1.935l0.012-0.053-22.426 84.173c-0.907 3.305-3.884 5.693-7.418 5.693-0.712 0-1.402-0.097-2.056-0.278l0.054 0.013-42.496-11.162-6.349 23.859 65.741 17.408c0.342 0.106 0.734 0.166 1.141 0.166 1.865 0 3.431-1.278 3.871-3.006l0.006-0.028 36.966-138.854c0.082-0.306 0.129-0.658 0.129-1.021 0-1.945-1.356-3.573-3.174-3.992l-0.028-0.005z" />
<glyph unicode="&#xe913;" glyph-name="move-to-trash" d="M175.616 64.41h-69.734c-5.655 0-10.24-4.585-10.24-10.24s4.585-10.24 10.24-10.24v0h69.734c5.655 0 10.24 4.585 10.24 10.24s-4.585 10.24-10.24 10.24v0zM181.043 97.69h-47.923c-5.655 0-10.24-4.585-10.24-10.24s4.585-10.24 10.24-10.24v0h48.23c5.655 0 10.24 4.585 10.24 10.24s-4.585 10.24-10.24 10.24v0zM779.059 104.858h22.016c11.311 0 20.48 9.169 20.48 20.48v0 338.637c0 11.311-9.169 20.48-20.48 20.48v0h-22.016c-11.311 0-20.48-9.169-20.48-20.48v0-338.637c0-11.311 9.169-20.48 20.48-20.48v0zM784.179 458.854h11.776v-328.294h-11.776zM672.973 104.858h21.914c11.311 0 20.48 9.169 20.48 20.48v0 338.637c0 11.311-9.169 20.48-20.48 20.48v0h-21.914c-11.311 0-20.48-9.169-20.48-20.48v0-338.637c0-11.311 9.169-20.48 20.48-20.48v0zM678.093 458.854h11.674v-328.294h-11.674zM566.784 104.858h21.914c11.311 0 20.48 9.169 20.48 20.48v0 338.637c0 11.311-9.169 20.48-20.48 20.48v0h-21.914c-11.311 0-20.48-9.169-20.48-20.48v0-338.637c0-11.311 9.169-20.48 20.48-20.48v0zM571.904 458.854h11.776v-328.294h-11.776zM937.472 611.84h-147.251v67.789c0 16.401-13.295 29.696-29.696 29.696v0h-143.36c-16.401 0-29.696-13.295-29.696-29.696v0-67.789h-156.877c-4.218-0.057-7.623-3.462-7.68-7.675v-66.565c0.057-4.218 3.462-7.623 7.675-7.68h13.829l17.613-309.248h-57.139v124.928c-0.057 4.141-3.428 7.476-7.577 7.476-0.036 0-0.072 0-0.109-0.001h-45.358c-0.031 0-0.067 0.001-0.103 0.001-4.149 0-7.52-3.335-7.577-7.47v-124.933h-63.386c-0.027 0-0.060 0-0.093 0-25.737 0-47.576-16.687-55.289-39.832l-0.119-0.411v-0.717c-1.689-5.098-2.663-10.968-2.663-17.064 0-0.049 0-0.098 0-0.147v0.008c0-0.001 0-0.001 0-0.002 0-1.414 1.146-2.56 2.56-2.56 0.036 0 0.072 0.001 0.108 0.002h10.235l-17.203-112.64c-0.053-0.339-0.083-0.729-0.083-1.126 0-4.235 3.427-7.669 7.66-7.68h662.427c0.005 0 0.011 0 0.017 0 4.061 0 7.386 3.153 7.662 7.144l0.001 0.024 27.648 484.25h13.824c4.218 0.057 7.623 3.462 7.68 7.675v66.565c-0.057 4.218-3.462 7.623-7.675 7.68h-0.005zM612.762 637.44v42.189c-0.001 0.031-0.001 0.067-0.001 0.104 0 2.206 1.788 3.994 3.994 3.994 0.036 0 0.073 0 0.109-0.001h143.355c0.031 0.001 0.067 0.001 0.104 0.001 2.206 0 3.994-1.788 3.994-3.994 0-0.036 0-0.073-0.001-0.109v0.005-67.789h-24.474v43.52c-0.057 4.218-3.462 7.623-7.675 7.68h-87.045c-4.218-0.057-7.623-3.462-7.68-7.675v-43.525h-24.678zM714.24 637.44v-25.6h-51.2v25.6zM364.646 333.414h19.763v-112.64h-19.763zM280.781 200.294h187.494c7.849-0.026 15.122-2.473 21.115-6.634l-0.123 0.081c4.575-3.137 8.32-7.144 11.068-11.808l0.094-0.172h-251.904c6.651 11.088 18.596 18.402 32.252 18.432h0.004zM474.214 58.88v35.738c-0.050 3.843-2.21 7.171-5.373 8.882l-0.054 0.027c-1.39 0.777-3.037 1.262-4.792 1.331l-0.021 0.001c-5.655 0-10.24-4.585-10.24-10.24v0-35.738h-25.6v35.738c0 5.655-4.585 10.24-10.24 10.24s-10.24-4.585-10.24-10.24v0-35.738h-25.702v35.738c0 5.655-4.585 10.24-10.24 10.24s-10.24-4.585-10.24-10.24v0-35.738h-25.6v35.738c0 5.655-4.585 10.24-10.24 10.24s-10.24-4.585-10.24-10.24v0-35.738h-25.702v35.738c0 5.655-4.585 10.24-10.24 10.24s-10.24-4.585-10.24-10.24v0-35.738h-28.262l15.053 101.069h236.646l14.643-96.256 0.819-4.813zM871.322 63.693h-343.245l-14.643 96.256h10.24c1.414 0 2.56 1.146 2.56 2.56v0c0.001 0.136 0.002 0.296 0.002 0.457 0 5.979-0.937 11.74-2.672 17.143l0.11-0.397v0.717c-5.697 17.15-18.706 30.495-35.233 36.531l-0.403 0.129-17.92 312.832h427.827zM919.552 555.213h-471.040v30.72h471.040z" />
<glyph unicode="&#xe914;" glyph-name="restore-from-trash" d="M551.117 484.454h-21.914c-11.311 0-20.48-9.169-20.48-20.48v0-338.637c0-11.311 9.169-20.48 20.48-20.48v0h21.914c11.311 0 20.48 9.169 20.48 20.48v0 338.637c0 11.311-9.169 20.48-20.48 20.48v0zM545.997 130.56h-11.674v328.294h11.674zM338.842 484.454h-22.016c-11.311 0-20.48-9.169-20.48-20.48v0-338.637c0-11.311 9.169-20.48 20.48-20.48v0h22.016c11.311 0 20.48 9.169 20.48 20.48v0 338.637c0 11.311-9.169 20.48-20.48 20.48v0zM333.722 130.56h-11.776v328.294h11.776zM444.928 484.454h-21.914c-11.311 0-20.48-9.169-20.48-20.48v0-338.637c0-11.311 9.169-20.48 20.48-20.48v0h21.914c11.311 0 20.48 9.169 20.48 20.48v0 338.637c0 11.311-9.169 20.48-20.48 20.48v0zM440.32 130.56h-12.186v328.294h12.186zM911.974 263.066l-36.966 138.752c-3.477 12.821-15.009 22.095-28.707 22.095-2.719 0-5.352-0.365-7.853-1.050l0.208 0.049-65.536-17.51-40.243 151.347c-0.907 3.305-3.884 5.693-7.418 5.693-0.712 0-1.402-0.097-2.056-0.278l0.054 0.013-28.262-7.578v28.672c0 0.031 0.001 0.067 0.001 0.103 0 4.185-3.393 7.578-7.578 7.578-0.036 0-0.072 0-0.109-0.001h-506.875c-4.242 0-7.68-3.438-7.68-7.68v0-66.56c0.057-4.218 3.462-7.623 7.675-7.68h15.058l26.419-463.462c0.276-4.015 3.602-7.168 7.663-7.168 0.006 0 0.012 0 0.018 0h408.575c0.005 0 0.011 0 0.017 0 4.061 0 7.386 3.153 7.662 7.144l0.001 0.024 24.474 426.906 113.562-426.701c0.952-3.299 3.944-5.67 7.49-5.67 0.686 0 1.351 0.089 1.985 0.255l-0.054-0.012 64.307 17.203c3.298 0.869 5.69 3.824 5.69 7.339 0 0.704-0.096 1.386-0.276 2.033l0.013-0.053-37.888 142.336 65.536 17.51c12.821 3.477 22.095 15.009 22.095 28.707 0 2.719-0.365 5.352-1.050 7.853l0.049-0.208zM621.466 63.693h-374.682l-25.498 445.747h425.574zM669.594 554.394v-6.554l-10.24-2.765c-3.305-0.907-5.693-3.884-5.693-7.418 0-0.712 0.097-1.402 0.278-2.056l-0.013 0.054v-1.024h-455.373v30.72h471.040zM833.434 77.619l-29.696-7.885-120.73 455.578 12.186 3.277 17.51 4.608zM792.474 332.083l24.678 6.554 13.21-49.459-24.781-6.554-6.861 25.088zM884.634 251.392l-40.96-10.854-24.474-6.554-0.717 2.662-5.632 21.197 41.984 11.264c3.341 0.882 5.764 3.877 5.764 7.437 0 0.668-0.085 1.317-0.246 1.935l0.012-0.053-22.426 84.173c-0.907 3.305-3.884 5.693-7.418 5.693-0.712 0-1.402-0.097-2.056-0.278l0.054 0.013-42.496-11.162-6.349 23.859 65.741 17.408c0.342 0.106 0.734 0.166 1.141 0.166 1.865 0 3.431-1.278 3.871-3.006l0.006-0.028 36.966-138.854c0.082-0.306 0.129-0.658 0.129-1.021 0-1.945-1.356-3.573-3.174-3.992l-0.028-0.005zM472.781 722.534v0l15.667-3.686c11.259-2.223 20.050-10.773 22.592-21.719l0.038-0.194 3.789-15.974c1.529-6.639 7.389-11.514 14.387-11.514s12.858 4.875 14.368 11.415l0.019 0.099 3.789 15.974c2.154 11.027 10.629 19.605 21.426 21.882l0.18 0.032 15.77 3.482c3.984 0.547 7.352 2.801 9.389 5.989l0.032 0.053c1.54 2.282 2.458 5.094 2.458 8.12 0 0.025 0 0.050 0 0.076v-0.004c0.001 0.061 0.001 0.132 0.001 0.204 0 6.611-4.232 12.233-10.135 14.304l-0.106 0.032-16.486 4.096c-11.294 1.779-20.228 10.163-22.798 21.008l-0.038 0.188-2.765 16.486c-1.529 6.639-7.389 11.514-14.387 11.514s-12.858-4.875-14.368-11.415l-0.019-0.099-3.789-15.872c-2.378-11.491-11.074-20.461-22.22-23.202l-0.206-0.043-15.667-2.765c-6.61-1.505-11.469-7.333-11.469-14.295 0-0.014 0-0.029 0-0.043v0.002c0.037-6.634 4.419-12.234 10.442-14.103l0.105-0.028zM528.896 758.886c5.182-9.646 13.066-17.267 22.637-21.985l0.3-0.134c-9.755-4.98-17.487-12.745-22.294-22.241l-0.132-0.287c-5.137 9.644-12.9 17.309-22.338 22.186l-0.292 0.137c9.525 5.090 17.11 12.74 21.981 22.035l0.137 0.288zM296.96 680.55v0l12.186-2.867c8.129-1.544 14.48-7.724 16.256-15.633l0.026-0.137 2.867-12.39c1.35-5.874 6.513-10.195 12.693-10.24h0.005c6.171 0.015 11.323 4.359 12.58 10.155l0.015 0.085 2.97 12.493c1.697 7.866 7.734 13.971 15.427 15.743l0.138 0.027 12.186 2.662c3.502 0.503 6.46 2.484 8.266 5.279l0.028 0.046c1.335 2.057 2.135 4.569 2.15 7.266v0.004c0.001 0.063 0.002 0.138 0.002 0.213 0 5.699-3.637 10.548-8.716 12.354l-0.092 0.028-12.902 2.97c-8.122 1.201-14.559 7.225-16.358 15.023l-0.026 0.132-2.15 12.902c-1.308 5.861-6.439 10.185-12.589 10.24h-0.006c-6.171-0.084-11.313-4.386-12.68-10.15l-0.018-0.090-3.789-12.186c-1.686-8.335-7.966-14.854-16.030-16.864l-0.149-0.032-12.288-1.741c-5.764-1.417-9.973-6.54-9.973-12.646s4.209-11.23 9.883-12.628l0.089-0.019zM340.787 707.072c3.575-5.865 8.449-10.609 14.245-13.927l0.193-0.102c-5.848-3.559-10.61-8.354-14.028-14.048l-0.103-0.186c-3.597 5.817-8.425 10.546-14.145 13.925l-0.191 0.104c5.669 3.662 10.311 8.435 13.716 14.041l0.108 0.192zM399.36 805.069h7.373v-7.27c0-5.655 4.585-10.24 10.24-10.24s10.24 4.585 10.24 10.24v0 7.27h7.987c5.655 0 10.24 4.585 10.24 10.24s-4.585 10.24-10.24 10.24v0h-7.987v8.090c0 5.655-4.585 10.24-10.24 10.24s-10.24-4.585-10.24-10.24v0-8.090h-7.373c-5.655 0-10.24-4.585-10.24-10.24s4.585-10.24 10.24-10.24v0z" />
<glyph unicode="&#xe915;" glyph-name="validate" horiz-adv-x="832" d="M415.948 956.214l-415.948-184.854v-277.28c0-256.485 177.472-496.334 415.948-554.565 238.479 58.231 415.947 298.080 415.947 554.565v277.28l-415.947 184.854zM323.515 216.795l-184.866 184.855 65.165 65.161 119.701-119.227 304.567 304.545 65.166-65.623-369.733-369.711z" />
<glyph unicode="&#xe916;" glyph-name="pin" horiz-adv-x="1067" d="M683.998 448v341.333h42.667v85.333h-426.665v-85.333h42.667v-341.333l-85.333-85.333v-85.333h221.865v-256h68.271v256h221.862v85.333l-85.333 85.333zM376.8 362.667l51.198 51.2v375.467h170.667v-375.467l51.2-51.2h-273.065z" />
<glyph unicode="&#xe917;" glyph-name="hamburger-new" d="M128 192h768v85.333h-768v-85.333zM128 405.333h768v85.333h-768v-85.333zM128 704v-85.333h768v85.333h-768z" />
<glyph unicode="&#xe918;" glyph-name="chat-new" d="M170.667 789.333h682.667v-512h-632.747l-49.92-49.92v561.92zM170.667 874.667c-46.933 0-84.907-38.4-84.907-85.333l-0.427-768 170.667 170.667h597.333c46.933 0 85.333 38.4 85.333 85.333v512c0 46.933-38.4 85.333-85.333 85.333h-682.667zM256 448h341.333v-85.333h-341.333v85.333zM256 576h512v-85.333h-512v85.333zM256 704h512v-85.333h-512v85.333z" />
<glyph unicode="&#xe919;" glyph-name="digital-marketing-app" d="M504.16 614.3h-327.68c-21.726 0-42.563-8.631-57.926-23.994s-23.994-36.2-23.994-57.924v-163.84c0-21.729 8.631-42.566 23.994-57.93 15.363-15.36 36.2-23.99 57.926-23.99h40.96v-163.84c0-10.867 4.316-21.283 11.997-28.963 7.681-7.684 18.1-11.997 28.963-11.997h81.92c10.863 0 21.282 4.313 28.963 11.997 7.682 7.68 11.997 18.096 11.997 28.963v163.84h122.88l204.8-163.84v655.358l-204.8-163.84zM627.040 303.006l-81.92 65.536h-368.64v163.84h368.64l81.92 65.534v-294.91zM893.28 450.462c0-70.042-39.322-133.53-102.4-163.84v327.678c62.669-30.72 102.4-94.206 102.4-163.838z" />
<glyph unicode="&#xe91a;" glyph-name="web-analytics-app" d="M488.997 131.346c3.629 0 7.242 0.066 10.838 0.188l22.979-80.646c-11.145-0.967-22.422-1.462-33.817-1.462-213.268 0-386.157 172.888-386.157 386.159 0 213.267 172.888 386.155 386.157 386.155 213.266 0 386.154-172.888 386.154-386.155 0-11.969-0.541-23.81-1.61-35.5l-80.564 22.954c0.172 4.162 0.254 8.344 0.254 12.546 0 168.024-136.208 304.235-304.234 304.235s-304.237-136.211-304.237-304.235c0-168.026 136.212-304.239 304.237-304.239zM489.013 585.36c71.598 0 131.461-50.238 146.264-117.388l85.291-24.302c-4.26 124.217-106.299 223.61-231.555 223.61-127.96 0-231.693-103.733-231.693-231.695 0-124.658 98.449-226.324 221.838-231.485l-24.404 85.647c-66.207 15.495-115.514 74.908-115.514 145.838 0 82.719 67.056 149.775 149.773 149.775zM511.992 426.435c-9.265 2.638-17.826-5.923-15.188-15.184l97.804-343.269c8.565-30.048 46.264-39.834 68.358-17.74l210.031 210.035c22.094 22.094 12.313 59.793-17.736 68.354l-343.269 97.804zM654.303 157.434l-44.429 155.931 155.935-44.429-111.505-111.501z" />
<glyph unicode="&#xe91b;" glyph-name="marketplace" d="M783.36 746.667l25.6-213.333h-593.92l25.6 213.333h542.72zM853.333 832h-682.667l-42.667-298.667v-85.333h42.667v-384h426.667v384h170.667v-384h85.333v384h42.667v85.333l-42.667 298.667zM256 149.333v298.667h256v-298.667h-256z" />
<glyph unicode="&#xe91c;" glyph-name="application-select" d="M938.667 19.2v202.667h-202.667v-202.667h202.667zM938.667 345.6v202.667h-202.667v-202.667h202.667zM938.667 672v202.667h-202.667v-202.667h202.667zM409.6 221.867v-202.667h202.667v202.667h-202.667zM612.267 548.267h-202.667v-202.667h202.667v202.667zM612.267 672v202.667h-202.667v-202.667h202.667zM285.867 221.867h-200.533v-202.667h200.533v202.667zM285.867 548.267h-200.533v-202.667h200.533v202.667zM285.867 874.667h-200.533v-202.667h200.533v202.667z" />
<glyph unicode="&#xe91d;" glyph-name="sales-analytics-app" d="M884.514 746.667h-199.386c-5.495 0-9.847-2.051-13.129-6.152-4.105-3.856-6.153-8.367-6.153-13.535s2.048-9.845 6.153-13.946l61.538-61.932-138.257-138.636-72.205 72.191c-11.238 11.238-24.781 16.815-40.614 16.815-15.838 0-29.376-5.577-40.614-16.815l-212.104-211.642 81.231-81.212 171.487 171.038 72.205-72.188c11.486-11.238 25.19-16.819 41.024-16.819 15.59 0 28.966 5.581 40.209 16.819l178.871 178.828 56.205-56.6c3.281-4.1 7.795-6.153 13.538-6.153 5.167 0 9.6 1.643 13.129 4.924 4.1 4.1 6.153 9.020 6.153 14.763v200.567c0 5.168-2.052 9.679-6.153 13.535-3.529 4.102-7.881 6.152-13.129 6.152zM938.667 93.7v67.268h-786.051v584.056h-67.282v-617.69c0-9.271 3.446-17.395 10.256-24.201 6.318-6.319 14.113-9.434 23.385-9.434h819.692z" />
<glyph unicode="&#xe91e;" glyph-name="color-fill" d="M810.667 469.333c0 0-85.333-92.587-85.333-149.333 0-47.128 38.205-85.333 85.333-85.333v0c47.128 0 85.333 38.205 85.333 85.333v0c0 56.747-85.333 149.333-85.333 149.333zM222.293 533.333l204.373 204.373 204.373-204.373zM706.56 578.56l-381.44 381.44-60.16-60.16 101.547-101.547-219.733-219.733c-25.173-23.893-25.173-65.28 0-90.453l234.667-234.667c12.373-12.373 29.013-18.773 45.227-18.773s32.853 6.4 45.227 18.773l234.667 234.667c25.173 25.173 25.173 66.56 0 90.453z" />
<glyph unicode="&#xe91f;" glyph-name="align-center" d="M128 832h768v-85.333h-768v85.333zM298.667 661.333h426.667v-85.333h-426.667v85.333zM128 490.667h768v-85.333h-768v85.333zM298.667 320h426.667v-85.333h-426.667v85.333zM128 149.333h768v-85.333h-768v85.333z" />
<glyph unicode="&#xe920;" glyph-name="align-left" d="M128 832h768v-85.333h-768v85.333zM128 661.333h512v-85.333h-512v85.333zM128 490.667h768v-85.333h-768v85.333zM128 320h512v-85.333h-512v85.333zM128 149.333h768v-85.333h-768v85.333z" />
<glyph unicode="&#xe921;" glyph-name="folder-open" d="M853.333 704h-341.333l-85.333 85.333h-256c-46.933 0-84.907-38.4-84.907-85.333l-0.427-512c0-46.933 38.4-85.333 85.333-85.333h682.667c46.933 0 85.333 38.4 85.333 85.333v426.667c0 46.933-38.4 85.333-85.333 85.333zM853.333 192h-682.667v426.667h682.667v-426.667z" />
<glyph unicode="&#xe922;" glyph-name="folder-closed" d="M426.667 789.333h-256c-46.933 0-84.907-38.4-84.907-85.333l-0.427-512c0-46.933 38.4-85.333 85.333-85.333h682.667c46.933 0 85.333 38.4 85.333 85.333v426.667c0 46.933-38.4 85.333-85.333 85.333h-341.333l-85.333 85.333z" />
<glyph unicode="&#xe923;" glyph-name="color-text" d="M410.453 448l101.547 270.080 101.12-270.080zM469.333 832l-234.667-597.333h96l47.787 128h266.667l48.213-128h96l-234.667 597.333h-85.333z" />
<glyph unicode="&#xe924;" glyph-name="note" d="M917.806 730.924c-22.212 30.292-53.174 65.7-87.178 99.704s-69.412 64.964-99.704 87.178c-51.574 37.82-76.592 42.194-90.924 42.194h-496c-44.112 0-80-35.888-80-80v-864c0-44.112 35.888-80 80-80h736c44.112 0 80 35.888 80 80v624c0 14.332-4.372 39.35-42.194 90.924zM785.374 785.374c30.7-30.7 54.8-58.398 72.58-81.374h-153.954v153.946c22.984-17.78 50.678-41.878 81.374-72.572zM896 16c0-8.672-7.328-16-16-16h-736c-8.672 0-16 7.328-16 16v864c0 8.672 7.328 16 16 16 0 0 495.956 0.002 496 0v-224c0-17.672 14.326-32 32-32h224v-624z" />
<glyph unicode="&#xe925;" glyph-name="heart-new" horiz-adv-x="983" d="M675.84 816.64c-71.27 0-139.674-33.178-184.32-85.606-44.646 52.429-113.050 85.606-184.32 85.606-126.157 0-225.28-99.123-225.28-225.28 0-154.829 139.264-280.986 350.208-472.678l59.392-53.658 59.392 54.067c210.944 191.283 350.208 317.44 350.208 472.269 0 126.157-99.123 225.28-225.28 225.28zM495.616 179.712l-4.096-4.096-4.096 4.096c-194.97 176.538-323.584 293.274-323.584 411.648 0 81.92 61.44 143.36 143.36 143.36 63.078 0 124.518-40.55 146.227-96.666h76.595c21.299 56.115 82.739 96.666 145.818 96.666 81.92 0 143.36-61.44 143.36-143.36 0-118.374-128.614-235.11-323.584-411.648z" />
<glyph unicode="&#xe926;" glyph-name="help" d="M810.667 874.667h-597.333c-47.36 0-85.333-38.4-85.333-85.333v-597.333c0-46.933 37.973-85.333 85.333-85.333h170.667l128-128 128 128h170.667c46.933 0 85.333 38.4 85.333 85.333v597.333c0 46.933-38.4 85.333-85.333 85.333zM810.667 192h-206.080l-92.587-92.587-92.587 92.587h-206.080v597.333h597.333v-597.333zM554.667 320h-85.333v-85.333h85.333v85.333zM512 661.333c46.933 0 85.333-38.4 85.333-85.333 0-85.333-128-74.667-128-213.333h85.333c0 96 128 106.667 128 213.333 0 94.293-76.373 170.667-170.667 170.667s-170.667-76.373-170.667-170.667h85.333c0 46.933 38.4 85.333 85.333 85.333z" />
<glyph unicode="&#xe927;" glyph-name="home" d="M512 717.227l213.333-192v-333.227h-85.333v256h-256v-256h-85.333v333.227l213.333 192zM512 832l-426.667-384h128v-341.333h256v256h85.333v-256h256v341.333h128l-426.667 384z" />
<glyph unicode="&#xe928;" glyph-name="dashboard-tiles" d="M810.667 746.667v-85.333h-170.667v85.333h170.667zM384 746.667v-256h-170.667v256h170.667zM810.667 405.333v-256h-170.667v256h170.667zM384 234.667v-85.333h-170.667v85.333h170.667zM896 832h-341.333v-256h341.333v256zM469.333 832h-341.333v-426.667h341.333v426.667zM896 490.667h-341.333v-426.667h341.333v426.667zM469.333 320h-341.333v-256h341.333v256z" />
<glyph unicode="&#xe929;" glyph-name="space" d="M391.253 704l85.333-85.333h376.747v-426.667h-682.667v512h220.587zM426.667 789.333h-256c-46.933 0-84.907-38.4-84.907-85.333l-0.427-512c0-46.933 38.4-85.333 85.333-85.333h682.667c46.933 0 85.333 38.4 85.333 85.333v426.667c0 46.933-38.4 85.333-85.333 85.333h-341.333l-85.333 85.333z" />
<glyph unicode="&#xe92a;" glyph-name="popular" d="M682.667 704l97.707-97.707-208.213-208.213-170.667 170.667-316.16-316.587 60.16-60.16 256 256 170.667-170.667 268.8 268.373 97.707-97.707v256h-256z" />
<glyph unicode="&#xe92b;" glyph-name="recent" horiz-adv-x="983" d="M122.89 525.005h277.709l-112.23 115.507c111.821 110.592 292.862 114.688 404.683 4.096 111.821-111.002 111.821-289.997 0-400.998s-292.862-111.002-404.683 0c-55.706 54.886-83.558 119.194-83.558 200.294h-81.92c0-81.101 36.045-186.368 108.134-257.638 143.77-142.541 377.24-142.541 521.010 0 143.36 142.131 144.589 373.146 0.819 515.277s-374.373 142.131-518.142 0l-111.821 115.098v-291.635zM511.959 437.76v174.080h-61.44v-204.8l175.309-104.038 29.491 49.562-143.36 85.197z" />
<glyph unicode="&#xe92c;" glyph-name="search-new" d="M661.333 362.667h-33.707l-11.947 11.52c41.813 48.64 66.987 111.787 66.987 180.48 0 153.173-124.16 277.333-277.333 277.333s-277.333-124.16-277.333-277.333c0-153.173 124.16-277.333 277.333-277.333 68.693 0 131.84 25.173 180.48 66.987l11.52-11.947v-33.707l213.333-212.907 63.573 63.573-212.907 213.333zM405.333 362.667c-106.24 0-192 85.76-192 192s85.76 192 192 192c106.24 0 192-85.76 192-192s-85.76-192-192-192z" />
<glyph unicode="&#xe92d;" glyph-name="shared" d="M853.333 704h-341.333l-85.333 85.333h-256c-46.933 0-84.907-38.4-84.907-85.333l-0.427-512c0-46.933 38.4-85.333 85.333-85.333h682.667c46.933 0 85.333 38.4 85.333 85.333v426.667c0 46.933-38.4 85.333-85.333 85.333zM853.333 192h-682.667v512h220.587l85.333-85.333h376.747v-426.667zM640 405.333c46.933 0 85.333 38.4 85.333 85.333s-38.4 85.333-85.333 85.333c-46.933 0-85.333-38.4-85.333-85.333s38.4-85.333 85.333-85.333zM469.333 234.667h341.333v42.667c0 56.747-113.92 85.333-170.667 85.333s-170.667-28.587-170.667-85.333v-42.667z" />
<glyph unicode="&#xe92e;" glyph-name="trash-content" d="M266.24 161.28c0-45.056 36.864-81.92 81.92-81.92h327.68c45.056 0 81.92 36.864 81.92 81.92v491.52h-491.52v-491.52zM348.16 570.88h327.68v-409.6h-327.68v409.6zM655.36 775.68l-40.96 40.96h-204.8l-40.96-40.96h-143.36v-81.92h573.44v81.92h-143.36z" />
<glyph unicode="&#xe92f;" glyph-name="unused-content" d="M593.879 734.72h327.68v-81.92h-327.68v81.92zM593.879 509.44h327.68v-81.92h-327.68v81.92zM593.879 284.16h327.68v-81.92h-327.68v81.92zM102.36 468.48c0-146.637 119.603-266.24 266.24-266.24h20.48v-81.92l122.879 122.88-122.879 122.88v-81.92h-20.48c-101.581 0-184.32 82.739-184.32 184.32s82.739 184.32 184.32 184.32h143.359v81.92h-143.359c-146.637 0-266.24-119.603-266.24-266.24z" />
<glyph unicode="&#xe930;" glyph-name="users-new" d="M384 373.333c-99.84 0-298.667-49.92-298.667-149.333v-74.667h597.333v74.667c0 99.413-198.827 149.333-298.667 149.333zM185.173 234.667c35.84 24.747 122.453 53.333 198.827 53.333s162.987-28.587 198.827-53.333h-397.653zM384 448c82.347 0 149.333 66.987 149.333 149.333s-66.987 149.333-149.333 149.333c-82.347 0-149.333-66.987-149.333-149.333s66.987-149.333 149.333-149.333zM384 661.333c35.413 0 64-28.587 64-64s-28.587-64-64-64c-35.413 0-64 28.587-64 64s28.587 64 64 64zM684.373 370.769c49.493-35.84 83.627-83.627 83.627-146.773v-74.667h170.667v74.667c0 86.187-149.333 135.253-254.293 146.773zM640 448c82.347 0 149.333 66.987 149.333 149.333s-66.987 149.333-149.333 149.333c-23.040 0-44.373-5.547-64-14.933 26.88-37.973 42.667-84.48 42.667-134.4s-15.787-96.427-42.667-134.4c19.627-9.387 40.96-14.933 64-14.933z" />
<glyph unicode="&#xe931;" glyph-name="align-right" d="M128 832h768v-85.333h-768v85.333zM384 661.333h512v-85.333h-512v85.333zM128 490.667h768v-85.333h-768v85.333zM384 320h512v-85.333h-512v85.333zM128 149.333h768v-85.333h-768v85.333z" />
<glyph unicode="&#xe932;" glyph-name="text-italic" d="M426.667 789.333v-128h94.293l-145.92-341.333h-119.040v-128h341.333v128h-94.293l145.92 341.333h119.040v128h-341.333z" />
<glyph unicode="&#xe933;" glyph-name="text-bold" d="M665.6 499.627c41.387 28.587 70.4 75.52 70.4 119.040 0 96.427-74.667 170.667-170.667 170.667h-266.667v-597.333h300.373c89.173 0 158.293 72.533 158.293 161.707 0 64.853-36.693 120.32-91.733 145.92v0zM426.667 682.667h128c35.413 0 64-28.587 64-64s-28.587-64-64-64h-128v128zM576 298.667h-149.333v128h149.333c35.413 0 64-28.587 64-64s-28.587-64-64-64z" />
<glyph unicode="&#xe934;" glyph-name="text-underline" d="M512 234.667c141.227 0 256 114.773 256 256v341.333h-106.667v-341.333c0-82.347-66.987-149.333-149.333-149.333s-149.333 66.987-149.333 149.333v341.333h-106.667v-341.333c0-141.227 114.773-256 256-256zM213.333 149.333v-85.333h597.333v85.333h-597.333z" />
</font>
</defs>
</svg>
